<svg xmlns="http://www.w3.org/2000/svg" viewBox="0 0 1200 600"><defs><style>.cls-1{fill:#24cc00;}.cls-2,.cls-3,.cls-5{fill:#fff;}.cls-3{font-size:100px;}.cls-3,.cls-5{font-family:Raleway-Bold, Raleway;font-weight:700;}.cls-4{letter-spacing:-0.01em;}.cls-5{font-size:97px;}.cls-6{letter-spacing:0em;}.cls-7{letter-spacing:-0.01em;}.cls-8{letter-spacing:-0.07em;}</style></defs><title>Business</title><g id="Layer_3" data-name="Layer 3"><rect class="cls-1" x="-0.02" y="-1.05" width="1200.03" height="600"/><rect class="cls-2" x="-1.21" y="506.03" width="1202.41" height="95.02"/><text class="cls-3" transform="translate(354.8 157.59)">BUSIN<tspan class="cls-4" x="309.2" y="0">E</tspan><tspan x="367.8" y="0">SS</tspan></text><text class="cls-5" transform="translate(188 264.15)">ADMINI<tspan class="cls-6" x="348.03" y="0">S</tspan><tspan x="407.01" y="0">T</tspan><tspan class="cls-7" x="467.05" y="0">R</tspan><tspan class="cls-8" x="530.49" y="0">A</tspan><tspan x="588.88" y="0">TION</tspan></text><polygon class="cls-2" points="35.23 340.38 -41.75 473.7 112.2 473.7 35.23 340.38"/><polygon class="cls-2" points="59.36 348.59 -17.62 481.92 136.34 481.92 59.36 348.59"/><polygon class="cls-2" points="536.5 433.21 459.53 566.54 613.48 566.54 536.5 433.21"/><polygon class="cls-2" points="566.75 401.84 489.77 535.16 643.73 535.16 566.75 401.84"/><polygon class="cls-2" points="583.27 405.45 506.29 538.78 660.25 538.78 583.27 405.45"/><circle class="cls-2" cx="314.23" cy="493.18" r="74.23"/><circle class="cls-2" cx="1142.63" cy="500.88" r="99.12"/><circle class="cls-2" cx="231.25" cy="497.15" r="33.61"/><circle class="cls-2" cx="253.22" cy="488.18" r="33.61"/><circle class="cls-2" cx="389.46" cy="491.18" r="33.61"/><circle class="cls-2" cx="498.19" cy="512.29" r="33.61"/><circle class="cls-2" cx="643.86" cy="522.29" r="53.79"/><circle class="cls-2" cx="697.66" cy="530.76" r="53.79"/><circle class="cls-2" cx="751.45" cy="536.94" r="53.79"/><circle class="cls-2" cx="1029.21" cy="501.88" r="38.33"/><circle class="cls-2" cx="1061.29" cy="488.18" r="38.33"/><ellipse class="cls-2" cx="831.38" cy="539.09" rx="73.79" ry="53.79"/><ellipse class="cls-2" cx="962.42" cy="539.09" rx="73.79" ry="53.79"/><rect class="cls-2" x="-32.82" y="472.11" width="1046.78" height="107.26"/><rect class="cls-2" x="-28.69" y="483.14" width="1199.2" height="107.59"/><rect class="cls-2" x="152.55" y="417.96" width="4.58" height="8.5" transform="translate(-1.61 0.59) rotate(-0.22)"/><path class="cls-2" d="M157.25,418.09a25.16,25.16,0,0,1-2.43-9.81h-.06a25.19,25.19,0,0,1-2.37,9.83Z"/><polygon class="cls-2" points="157.24 426.24 152.5 426.26 151.54 426.69 151.52 427.38 152.29 428.87 152.39 453.25 157.82 453.22 157.72 428.9 158.3 427.19 158.3 426.5 157.24 426.24"/><polygon class="cls-2" points="157.24 426.24 152.5 426.26 151.54 426.69 151.52 427.38 152.29 428.87 157.72 428.83 158.3 427.19 158.3 426.5 157.24 426.24"/><rect class="cls-2" x="152.04" y="419.06" width="5.67" height="1.92" transform="translate(-1.6 0.59) rotate(-0.22)"/><polygon class="cls-2" points="152.04 420.99 152.63 422.8 157.13 422.78 157.71 420.97 152.04 420.99"/><rect class="cls-2" x="176.23" y="423.78" width="7.2" height="13.36" transform="matrix(1, 0, 0, 1, -1.64, 0.69)"/><path class="cls-2" d="M179.69,408.43v.11A.87.87,0,0,1,179.69,408.43Z"/><path class="cls-2" d="M179.79,408.54v0Z"/><path class="cls-2" d="M183.62,424c-3.78-8.65-3.84-14.55-3.83-15.44h-.1c0,.89,0,6.79-3.71,15.47Z"/><polygon class="cls-2" points="183.59 436.79 176.14 436.82 174.64 437.5 174.6 438.58 175.82 440.92 175.87 451.47 184.4 451.44 184.36 440.97 185.27 438.29 185.27 437.2 183.59 436.79"/><polygon class="cls-2" points="183.59 436.79 176.14 436.82 174.64 437.5 174.6 438.58 175.82 440.92 184.36 440.86 185.27 438.29 185.27 437.2 183.59 436.79"/><rect class="cls-2" x="175.42" y="425.5" width="8.92" height="3.01" transform="translate(-1.63 0.69) rotate(-0.22)"/><polygon class="cls-2" points="175.43 428.53 176.35 431.37 183.43 431.35 184.34 428.5 175.43 428.53"/><rect id="SVGCleanerId_0" data-name="SVGCleanerId 0" class="cls-2" x="170.48" y="389.63" width="8.53" height="15.84" transform="translate(-1.52 0.67) rotate(-0.22)"/><path id="SVGCleanerId_1" data-name="SVGCleanerId 1" class="cls-2" d="M174.57,371.44v.14A.79.79,0,0,0,174.57,371.44Z"/><path id="SVGCleanerId_2" data-name="SVGCleanerId 2" class="cls-2" d="M174.69,371.58v0Z"/><path id="SVGCleanerId_3" data-name="SVGCleanerId 3" class="cls-2" d="M179.23,389.87c-4.48-10.25-4.56-17.24-4.54-18.29h-.11c0,1.05,0,8-4.4,18.32Z"/><polygon class="cls-2" points="179.2 405.05 170.37 405.08 168.59 405.88 168.54 407.17 169.99 409.94 170.04 422.44 180.16 422.4 180.11 410 181.19 406.82 181.18 405.53 179.2 405.05"/><polygon class="cls-2" points="179.2 405.05 170.37 405.08 168.59 405.88 168.54 407.17 169.99 409.94 180.11 409.87 181.19 406.82 181.18 405.53 179.2 405.05"/><rect id="SVGCleanerId_4" data-name="SVGCleanerId 4" class="cls-2" x="169.51" y="391.67" width="10.56" height="3.57" transform="translate(-1.5 0.67) rotate(-0.22)"/><polygon class="cls-2" points="169.52 395.26 170.62 398.63 179.01 398.6 180.08 395.22 169.52 395.26"/><rect id="SVGCleanerId_0-2" data-name="SVGCleanerId 0" class="cls-2" x="170.48" y="389.63" width="8.53" height="15.84" transform="translate(-1.52 0.67) rotate(-0.22)"/><path id="SVGCleanerId_1-2" data-name="SVGCleanerId 1" class="cls-2" d="M174.57,371.44v.14A.79.79,0,0,0,174.57,371.44Z"/><path id="SVGCleanerId_2-2" data-name="SVGCleanerId 2" class="cls-2" d="M174.69,371.58v0Z"/><path id="SVGCleanerId_3-2" data-name="SVGCleanerId 3" class="cls-2" d="M179.23,389.87c-4.48-10.25-4.56-17.24-4.54-18.29h-.11c0,1.05,0,8-4.4,18.32Z"/><polygon class="cls-2" points="179.2 405.05 170.37 405.08 168.59 405.88 168.54 407.17 169.99 409.94 170.04 422.44 180.16 422.4 180.11 410 181.19 406.82 181.18 405.53 179.2 405.05"/><polygon class="cls-2" points="179.2 405.05 170.37 405.08 168.59 405.88 168.54 407.17 169.99 409.94 180.11 409.87 181.19 406.82 181.18 405.53 179.2 405.05"/><rect id="SVGCleanerId_4-2" data-name="SVGCleanerId 4" class="cls-2" x="169.51" y="391.67" width="10.56" height="3.57" transform="translate(-1.5 0.67) rotate(-0.22)"/><polygon class="cls-2" points="169.52 395.26 170.62 398.63 179.01 398.6 180.08 395.22 169.52 395.26"/><rect class="cls-2" x="145.74" y="405.82" width="6.18" height="11.48" transform="translate(-1.57 0.57) rotate(-0.22)"/><path class="cls-2" d="M152.09,406c-3.24-7.43-3.3-12.5-3.29-13.26h-.08c0,.76,0,5.83-3.19,13.29Z"/><polygon class="cls-2" points="152.07 416.99 145.67 417.02 144.38 417.6 144.34 418.53 145.39 420.54 145.52 453.47 152.85 453.44 152.73 420.59 153.51 418.28 153.51 417.35 152.07 416.99"/><polygon class="cls-2" points="152.07 416.99 145.67 417.02 144.38 417.6 144.34 418.53 145.39 420.54 152.73 420.49 153.51 418.28 153.51 417.35 152.07 416.99"/><rect class="cls-2" x="145.05" y="407.29" width="7.66" height="2.59" transform="translate(-1.56 0.57) rotate(-0.22)"/><polygon class="cls-2" points="145.05 409.9 145.85 412.34 151.93 412.32 152.71 409.87 145.05 409.9"/><rect class="cls-2" x="138.69" y="423.97" width="4.58" height="8.5" transform="translate(-1.63 0.54) rotate(-0.22)"/><path class="cls-2" d="M143.39,424.1a25.19,25.19,0,0,1-2.43-9.82h-.06a25.4,25.4,0,0,1-2.37,9.84Z"/><polygon class="cls-2" points="143.37 432.24 138.64 432.26 137.68 432.69 137.66 433.38 138.44 434.87 138.53 459.25 143.96 459.23 143.86 434.9 144.44 433.2 144.44 432.51 143.37 432.24"/><polygon class="cls-2" points="143.37 432.24 138.64 432.26 137.68 432.69 137.66 433.38 138.44 434.87 143.86 434.83 144.44 433.2 144.44 432.51 143.37 432.24"/><rect class="cls-2" x="138.18" y="425.06" width="5.67" height="1.92" transform="translate(-1.63 0.54) rotate(-0.22)"/><polygon class="cls-2" points="138.18 426.99 138.77 428.8 143.27 428.78 143.85 426.97 138.18 426.99"/><rect class="cls-2" x="152.41" y="429.35" width="26.53" height="23.4" transform="translate(-1.68 0.64) rotate(-0.22)"/><path class="cls-2" d="M159,434.1a.41.41,0,0,0-.41.43v1.91a.42.42,0,0,0,.42.43.42.42,0,0,0,.42-.43v-1.91A.43.43,0,0,0,159,434.1Z"/><path class="cls-2" d="M161.45,434.09a.42.42,0,0,0-.42.43v1.91a.43.43,0,0,0,.43.43.41.41,0,0,0,.41-.43v-1.91A.42.42,0,0,0,161.45,434.09Z"/><path class="cls-2" d="M160.21,434.11a.41.41,0,0,0-.41.43v1.92a.42.42,0,1,0,.84,0v-1.91A.43.43,0,0,0,160.21,434.11Z"/><path class="cls-2" d="M169.54,434.06a.42.42,0,0,0-.42.43v1.91a.42.42,0,1,0,.84,0v-1.91A.42.42,0,0,0,169.54,434.06Z"/><path class="cls-2" d="M172,434.05a.42.42,0,0,0-.42.43v1.91a.42.42,0,1,0,.84,0v-1.91A.42.42,0,0,0,172,434.05Z"/><path class="cls-2" d="M170.76,434.07a.42.42,0,0,0-.42.43v1.92a.42.42,0,0,0,.42.42.42.42,0,0,0,.42-.43V434.5A.42.42,0,0,0,170.76,434.07Z"/><path class="cls-2" d="M164.88,434.08a.42.42,0,0,0-.42.43v1.91a.42.42,0,1,0,.84,0V434.5A.42.42,0,0,0,164.88,434.08Z"/><path class="cls-2" d="M166.1,434.09a.42.42,0,0,0-.42.43v1.91a.42.42,0,1,0,.84,0v-1.91A.42.42,0,0,0,166.1,434.09Z"/><path class="cls-2" d="M159,440.25a.42.42,0,0,0-.42.43v1.91a.42.42,0,0,0,.42.43.42.42,0,0,0,.42-.43v-1.91A.42.42,0,0,0,159,440.25Z"/><path class="cls-2" d="M161.47,440.24a.42.42,0,0,0-.42.43v1.91a.42.42,0,1,0,.84,0v-1.91A.42.42,0,0,0,161.47,440.24Z"/><path class="cls-2" d="M160.24,440.26a.42.42,0,0,0-.42.43v1.91a.42.42,0,0,0,.42.43.42.42,0,0,0,.42-.43v-1.91A.42.42,0,0,0,160.24,440.26Z"/><path class="cls-2" d="M169.56,440.21a.42.42,0,0,0-.42.43v1.91a.42.42,0,1,0,.84,0v-1.92A.42.42,0,0,0,169.56,440.21Z"/><path class="cls-2" d="M172,440.2a.42.42,0,0,0-.42.43v1.91a.42.42,0,0,0,.42.43.42.42,0,0,0,.42-.43v-1.91A.43.43,0,0,0,172,440.2Z"/><path class="cls-2" d="M170.78,440.22a.42.42,0,0,0-.42.43v1.91a.42.42,0,1,0,.84,0v-1.91A.42.42,0,0,0,170.78,440.22Z"/><path class="cls-2" d="M164.9,440.22a.43.43,0,0,0-.42.44v1.91a.42.42,0,0,0,.42.43.43.43,0,0,0,.42-.43v-1.92A.42.42,0,0,0,164.9,440.22Z"/><path class="cls-2" d="M166.12,440.24a.42.42,0,0,0-.42.43v1.91a.42.42,0,0,0,.42.43.42.42,0,0,0,.42-.43v-1.91A.42.42,0,0,0,166.12,440.24Z"/><rect class="cls-2" x="173.89" y="421.95" width="5.02" height="7.47" transform="translate(-1.62 0.68) rotate(-0.22)"/><rect class="cls-2" x="173.87" y="421.56" width="5.02" height="0.4" transform="translate(-1.61 0.68) rotate(-0.22)"/><rect class="cls-2" x="178.45" y="420.69" width="0.4" height="1.22" transform="translate(-1.61 0.68) rotate(-0.22)"/><rect class="cls-2" x="177.67" y="420.69" width="0.56" height="1.22" transform="translate(-1.61 0.68) rotate(-0.22)"/><rect class="cls-2" x="176.3" y="420.69" width="0.94" height="1.22" transform="translate(-1.61 0.68) rotate(-0.22)"/><rect class="cls-2" x="174.83" y="420.7" width="0.94" height="1.22" transform="translate(-1.61 0.67) rotate(-0.22)"/><rect class="cls-2" x="152.35" y="422.03" width="5.02" height="7.47" transform="translate(-1.62 0.59) rotate(-0.22)"/><rect class="cls-2" x="152.34" y="421.64" width="5.02" height="0.4" transform="translate(-1.61 0.59) rotate(-0.22)"/><rect class="cls-2" x="152.38" y="420.78" width="0.4" height="1.22" transform="translate(-1.61 0.59) rotate(-0.22)"/><rect class="cls-2" x="152.99" y="420.78" width="0.56" height="1.22" transform="translate(-1.61 0.59) rotate(-0.22)"/><rect class="cls-2" x="153.98" y="420.78" width="0.94" height="1.22" transform="translate(-1.61 0.59) rotate(-0.22)"/><rect class="cls-2" x="155.46" y="420.77" width="0.94" height="1.22" transform="translate(-1.61 0.6) rotate(-0.22)"/><rect class="cls-2" x="158.59" y="418.19" width="13.78" height="11.21" transform="translate(-1.62 0.63) rotate(-0.22)"/><polygon class="cls-2" points="165.55 404.2 156.09 418.22 175.13 418.14 165.55 404.2"/><polygon class="cls-2" points="156.09 418.13 156.85 421 156.88 429.43 158.86 429.42 158.82 418.12 156.09 418.13"/><polygon class="cls-2" points="172.35 418.06 172.39 429.37 174.38 429.36 174.34 420.93 175.08 418.05 172.35 418.06"/><rect class="cls-2" x="186.91" y="402.12" width="11.9" height="10.84" transform="translate(-1.55 0.74) rotate(-0.22)"/><path class="cls-2" d="M185.34,395.7s.16,7.37,1.55,7.37l11.9-.05c1.52,0,1.49-7.38,1.49-7.38Z"/><path class="cls-2" d="M192.7,387.67s-7.22,8.16-8.54,8.17l17.37-.07C200,395.78,192.7,387.67,192.7,387.67Z"/><polygon class="cls-2" points="185.07 411.87 183.29 413.16 183.31 418.32 185.42 423.86 187.2 422.57 185.07 411.87"/><rect class="cls-2" x="184.85" y="422.25" width="16.36" height="23.21" transform="translate(-1.65 0.74) rotate(-0.22)"/><rect class="cls-2" x="184.85" y="422.28" width="2.28" height="23.21" transform="translate(-1.65 0.71) rotate(-0.22)"/><path class="cls-2" d="M202.54,454.34l-.81-10.28a.14.14,0,0,0-.14-.14l-16.37.07a.14.14,0,0,0-.14.14l0,10.31a.15.15,0,0,0,.14.15l17.14-.07h0a.15.15,0,0,0,.15-.14S202.55,454.35,202.54,454.34Z"/><polygon class="cls-2" points="185.07 411.87 185.09 417.02 187.2 422.57 201.13 422.52 203.19 416.95 203.17 411.8 185.07 411.87"/><polygon class="cls-2" points="184.8 411 183.29 412.14 183.29 413.17 186.32 411 184.8 411"/><rect class="cls-2" x="185.05" y="410.96" width="18.12" height="0.87" transform="translate(-1.57 0.74) rotate(-0.22)"/><polygon class="cls-2" points="184.7 444.46 183.71 443.54 183.7 442.15 182.12 442.16 182.11 440.11 180.26 440.11 180.25 438.13 178.46 438.14 178.46 436.29 176.87 436.29 176.86 434.24 174.91 434.25 174.92 436.3 173.33 436.31 173.34 438.16 171.55 438.17 171.56 440.15 169.71 440.15 169.72 442.2 168.13 442.21 168.14 443.6 167.15 444.53 161.2 444.55 161.23 452.68 190.68 452.57 190.65 444.44 184.7 444.46"/><rect class="cls-2" x="163.01" y="447.01" width="25.78" height="8.23" transform="translate(-1.72 0.67) rotate(-0.22)"/><rect class="cls-2" x="142.39" y="452.65" width="62.03" height="4.76" transform="translate(-1.74 0.67) rotate(-0.22)"/><rect class="cls-2" x="188.85" y="455.16" width="16.07" height="20.73" transform="translate(-1.78 0.75) rotate(-0.22)"/><rect class="cls-2" x="189.91" y="456.19" width="13.95" height="18.65" transform="translate(-1.78 0.75) rotate(-0.22)"/><path class="cls-2" d="M192.49,459.55c-.38,0-.68.22-.68.48v2.1c0,.26.31.48.68.47s.68-.21.68-.47V460C193.17,459.76,192.86,459.55,192.49,459.55Z"/><path class="cls-2" d="M194,459.57c-.37,0-.68.21-.68.47v2.11c0,.26.31.47.68.47s.68-.22.68-.48V460C194.69,459.78,194.39,459.56,194,459.57Z"/><path class="cls-2" d="M194,459.33a1,1,0,0,0-.75.31,1,1,0,0,0-.77-.32.82.82,0,0,0-.91.71v2.1a.82.82,0,0,0,.91.71,1,1,0,0,0,.75-.31,1,1,0,0,0,.77.32.82.82,0,0,0,.91-.71V460A.82.82,0,0,0,194,459.33Zm-1.06,2.8c0,.11-.2.24-.45.24s-.45-.13-.45-.24V460c0-.11.2-.25.45-.25s.45.13.45.24Zm1.52,0c0,.12-.19.25-.45.25s-.45-.13-.45-.24V460c0-.11.19-.24.44-.24s.45.13.45.24Z"/><path class="cls-2" d="M195.73,459.47a3.21,3.21,0,0,0-2.53-1.23,2.53,2.53,0,0,0-2.3,1.28.23.23,0,0,0,.1.31l.1,0a.23.23,0,0,0,.21-.13,2.11,2.11,0,0,1,1.89-1,2.72,2.72,0,0,1,2.15,1,.23.23,0,0,0,.38-.27Z"/><path class="cls-2" d="M199.47,459.53c-.38,0-.68.21-.68.47v2.11c0,.26.31.47.68.47s.68-.22.68-.48V460C200.15,459.74,199.84,459.52,199.47,459.53Z"/><path class="cls-2" d="M201,459.54c-.37,0-.68.21-.68.48v2.1c0,.26.31.47.68.47s.68-.21.68-.48V460C201.67,459.75,201.37,459.54,201,459.54Z"/><path class="cls-2" d="M201,459.31a1,1,0,0,0-.75.31.94.94,0,0,0-.77-.32.82.82,0,0,0-.91.7v2.11a.82.82,0,0,0,.91.7,1,1,0,0,0,.75-.31,1,1,0,0,0,.77.32.82.82,0,0,0,.91-.71V460C201.9,459.61,201.5,459.31,201,459.31Zm-1.07,2.79c0,.11-.19.24-.44.25s-.45-.13-.45-.25V460c0-.11.2-.24.45-.24s.45.13.45.24Zm1.53,0c0,.11-.19.24-.45.24s-.45-.13-.45-.24V460c0-.12.19-.25.44-.25s.45.13.45.24Z"/><path class="cls-2" d="M202.71,459.44a3.21,3.21,0,0,0-2.53-1.23,2.53,2.53,0,0,0-2.3,1.28.23.23,0,0,0,.1.31.19.19,0,0,0,.1,0,.23.23,0,0,0,.21-.13,2.13,2.13,0,0,1,1.89-1,2.75,2.75,0,0,1,2.15,1,.23.23,0,0,0,.32.06A.24.24,0,0,0,202.71,459.44Z"/><rect class="cls-2" x="147" y="455.32" width="16.07" height="20.73" transform="translate(-1.78 0.6) rotate(-0.22)"/><rect class="cls-2" x="148.06" y="456.35" width="13.95" height="18.65" transform="translate(-1.78 0.6) rotate(-0.22)"/><path class="cls-2" d="M150.64,459.71c-.37,0-.68.22-.67.48v2.1c0,.26.31.48.68.47s.68-.21.68-.47v-2.11C151.32,459.92,151,459.71,150.64,459.71Z"/><path class="cls-2" d="M152.16,459.73c-.37,0-.67.21-.67.47v2.11c0,.26.31.47.68.47s.68-.22.68-.48v-2.1C152.84,459.94,152.54,459.72,152.16,459.73Z"/><path class="cls-2" d="M152.16,459.49a1.06,1.06,0,0,0-.75.31,1,1,0,0,0-.77-.32.82.82,0,0,0-.91.71v2.1a.82.82,0,0,0,.91.71,1.09,1.09,0,0,1,1.53,0,.81.81,0,0,0,.9-.71v-2.1A.82.82,0,0,0,152.16,459.49Zm-1.06,2.8c0,.11-.2.24-.45.24s-.44-.13-.45-.24v-2.1c0-.11.19-.25.44-.25s.45.13.45.24Zm1.52,0c0,.12-.19.25-.45.25s-.44-.13-.44-.25v-2.1c0-.11.19-.24.44-.24s.45.13.45.24Z"/><path class="cls-2" d="M153.88,459.63a3.24,3.24,0,0,0-2.53-1.24,2.55,2.55,0,0,0-2.3,1.29.23.23,0,0,0,.1.31l.11,0a.23.23,0,0,0,.2-.13,2.12,2.12,0,0,1,1.9-1,2.68,2.68,0,0,1,2.14,1,.24.24,0,0,0,.33.05A.23.23,0,0,0,153.88,459.63Z"/><path class="cls-2" d="M157.62,459.69c-.37,0-.68.21-.68.47v2.11c0,.26.31.47.68.47s.68-.22.68-.48v-2.1C158.3,459.9,158,459.68,157.62,459.69Z"/><path class="cls-2" d="M159.14,459.7c-.37,0-.68.21-.67.48v2.1c0,.26.31.47.68.47s.68-.21.68-.48v-2.1C159.82,459.91,159.52,459.7,159.14,459.7Z"/><path class="cls-2" d="M159.14,459.47a1.06,1.06,0,0,1-1.52,0c-.51,0-.91.32-.91.71v2.11a.82.82,0,0,0,.91.7,1,1,0,0,0,.75-.31,1,1,0,0,0,.77.32.82.82,0,0,0,.91-.71v-2.1C160.05,459.77,159.65,459.47,159.14,459.47Zm-1.06,2.79c0,.11-.2.24-.45.25s-.45-.13-.45-.25v-2.1c0-.11.19-.24.44-.24s.45.13.45.24Zm1.52,0c0,.12-.19.25-.45.25s-.44-.13-.45-.24v-2.1c0-.12.19-.25.44-.25s.45.13.45.24Z"/><path class="cls-2" d="M160.86,459.6a3.21,3.21,0,0,0-2.53-1.23,2.53,2.53,0,0,0-2.3,1.28.23.23,0,1,0,.41.21,2.13,2.13,0,0,1,1.89-1,2.75,2.75,0,0,1,2.15,1,.24.24,0,0,0,.32.06A.24.24,0,0,0,160.86,459.6Z"/><rect class="cls-2" x="163.06" y="455.24" width="25.78" height="20.73" transform="translate(-1.78 0.68) rotate(-0.22)"/><rect class="cls-2" x="164.3" y="460.44" width="1.79" height="3.47" transform="translate(-1.76 0.63) rotate(-0.22)"/><rect class="cls-2" x="164.71" y="461.2" width="0.99" height="1.93" transform="translate(-1.76 0.63) rotate(-0.22)"/><rect class="cls-2" x="164.34" y="468.85" width="1.79" height="3.47" transform="translate(-1.8 0.63) rotate(-0.22)"/><rect class="cls-2" x="164.74" y="469.62" width="0.99" height="1.93" transform="translate(-1.8 0.63) rotate(-0.22)"/><rect class="cls-2" x="150.51" y="468.9" width="1.79" height="3.47" transform="translate(-1.8 0.58) rotate(-0.22)"/><rect class="cls-2" x="150.9" y="469.67" width="0.99" height="1.93" transform="translate(-1.8 0.58) rotate(-0.22)"/><rect class="cls-2" x="157.53" y="468.87" width="1.78" height="3.47" transform="translate(-1.8 0.61) rotate(-0.22)"/><rect class="cls-2" x="157.93" y="469.65" width="0.99" height="1.93" transform="translate(-1.8 0.61) rotate(-0.22)"/><rect class="cls-2" x="185.86" y="460.36" width="1.79" height="3.47" transform="translate(-1.76 0.72) rotate(-0.22)"/><rect class="cls-2" x="186.26" y="461.12" width="0.99" height="1.93" transform="translate(-1.76 0.72) rotate(-0.22)"/><rect class="cls-2" x="185.9" y="468.76" width="1.79" height="3.47" transform="translate(-1.79 0.72) rotate(-0.22)"/><rect class="cls-2" x="186.29" y="469.54" width="0.99" height="1.93" transform="translate(-1.79 0.72) rotate(-0.22)"/><rect class="cls-2" x="199.33" y="468.71" width="1.79" height="3.47" transform="translate(-1.79 0.77) rotate(-0.22)"/><rect class="cls-2" x="199.72" y="469.49" width="0.99" height="1.93" transform="translate(-1.79 0.77) rotate(-0.22)"/><rect class="cls-2" x="192.54" y="468.74" width="1.78" height="3.47" transform="translate(-1.79 0.74) rotate(-0.22)"/><rect class="cls-2" x="192.93" y="469.51" width="0.99" height="1.93" transform="translate(-1.79 0.74) rotate(-0.22)"/><path class="cls-2" d="M185.86,458l0-5.13-19.8.08,0,5.13c0,1.29,2,2.44,2,2.44l0,5.36-1.23,1.49a1.71,1.71,0,0,0-.54,1.29l0,7.34,19.3-.07,0-7.34a1.74,1.74,0,0,0-.55-1.29l-1.24-1.48,0-5.36S185.87,459.24,185.86,458Z"/><path class="cls-2" d="M166,452.9l0,5.13c0,1.29,2,2.44,2,2.44l0,5.36-1.23,1.49a1.71,1.71,0,0,0-.54,1.29l0,7.34,9.61,0-.08-23.05-9.87,0Z"/><path class="cls-2" d="M173.34,455.11v4h1.09a1.84,1.84,0,0,1,3.16,0h1.09v-4Z"/><path class="cls-2" d="M173.34,455.11v4h1.09s-.17-1.51,1.58-1.52a1.38,1.38,0,0,1,1.58,1.51h1.09v-4Z"/><path class="cls-2" d="M181.54,452.84l0,5.13c0,1.29,2,2.44,2,2.44h0s2-1.17,2-2.46l0-5.13Z"/><path class="cls-2" d="M181.76,452.84l0,5.13c0,1.29,2,2.44,2,2.44h0s2-1.17,2-2.46l0-5.13Z"/><path class="cls-2" d="M166.25,452.89l0,5.14c0,1.28,2,2.44,2,2.44h0s2-1.17,2-2.46l0-5.13Z"/><path class="cls-2" d="M166,452.9V458c0,1.29,2.05,2.44,2.05,2.44h0s2-1.17,2-2.46l0-5.13Z"/><rect class="cls-2" x="180.17" y="460.58" width="0.63" height="1.59" transform="translate(-1.76 0.69) rotate(-0.22)"/><rect class="cls-2" x="171.11" y="460.61" width="0.63" height="1.59" transform="translate(-1.76 0.66) rotate(-0.22)"/><rect class="cls-2" x="173.86" y="459.9" width="4.2" height="4.46" transform="translate(-1.76 0.67) rotate(-0.22)"/><rect class="cls-2" x="173.86" y="460.4" width="3.97" height="3.97" transform="translate(-1.76 0.67) rotate(-0.22)"/><path class="cls-2" d="M166,452.9v2.34l19.8-.07v-2.35Z"/><path class="cls-2" d="M176.09,466.39h-.16a3.85,3.85,0,0,0-3.84,3.87l0,5.72H180l0-5.74A3.86,3.86,0,0,0,176.09,466.39Z"/><polygon class="cls-2" points="175.85 438.51 170.4 447.03 181.37 446.99 175.85 438.51"/><path class="cls-2" d="M175.83,438.05a.58.58,0,0,0-.58.58v2.78a.58.58,0,0,0,.58.58.6.6,0,0,0,.58-.59v-2.77A.58.58,0,0,0,175.83,438.05Z"/><path class="cls-2" d="M177.67,440.3a.58.58,0,0,0-.58.58v2.78a.58.58,0,1,0,1.16,0v-2.78A.58.58,0,0,0,177.67,440.3Z"/><path class="cls-2" d="M179.12,442.47a.58.58,0,0,0-.57.59v2.77a.58.58,0,1,0,1.16,0v-2.78A.6.6,0,0,0,179.12,442.47Z"/><path class="cls-2" d="M180.58,444.76a.58.58,0,0,0-.57.58v2.78a.58.58,0,1,0,1.16,0v-2.78A.58.58,0,0,0,180.58,444.76Z"/><path class="cls-2" d="M174.09,440.32a.58.58,0,0,0-.58.58v2.78a.58.58,0,0,0,1.16,0v-2.78A.57.57,0,0,0,174.09,440.32Z"/><path class="cls-2" d="M172.61,442.5a.58.58,0,0,0-.58.58l0,2.78a.58.58,0,0,0,.58.58.59.59,0,0,0,.57-.59v-2.77A.58.58,0,0,0,172.61,442.5Z"/><path class="cls-2" d="M171.22,444.8a.57.57,0,0,0-.57.58v2.78a.58.58,0,1,0,1.15,0v-2.77A.57.57,0,0,0,171.22,444.8Z"/><path class="cls-2" d="M168.86,422.29l-6.82,0c-.13,0-.23,0-.23.07v.27s.1.06.23.06l6.83,0c.13,0,.23,0,.23-.07v-.27S169,422.29,168.86,422.29Z"/><path class="cls-2" d="M163.58,426.08a.63.63,0,0,0-.63.63v2.81a.65.65,0,0,0,.64.63.64.64,0,0,0,.63-.64v-2.8A.64.64,0,0,0,163.58,426.08Z"/><path class="cls-2" d="M167.27,426.07a.63.63,0,0,0-.63.63v2.8a.63.63,0,0,0,.63.63.62.62,0,0,0,.63-.63v-2.81A.62.62,0,0,0,167.27,426.07Z"/><path class="cls-2" d="M165.42,425.92a.64.64,0,0,0-.63.64v2.8a.63.63,0,0,0,.63.63.64.64,0,0,0,.63-.64v-2.8A.63.63,0,0,0,165.42,425.92Z"/><path class="cls-2" d="M168.89,429.48l-6.82,0a.23.23,0,0,0-.23.23v.93a.23.23,0,0,0,.23.23l6.83,0a.23.23,0,0,0,.23-.23v-.94A.23.23,0,0,0,168.89,429.48Z"/><path class="cls-2" d="M144.75,475.43v3.67a62,62,0,0,0,63.06-1.65v-2.26l-63.07.24Z"/><rect class="cls-2" x="206.25" y="450.85" width="0.69" height="2.78" transform="translate(-1.72 0.79) rotate(-0.22)"/><rect class="cls-2" x="206.29" y="460.48" width="0.69" height="2.78" transform="translate(-1.76 0.79) rotate(-0.22)"/><rect class="cls-2" x="206.32" y="470.3" width="0.69" height="2.78" transform="translate(-1.8 0.79) rotate(-0.22)"/><polygon class="cls-2" points="203.91 440.05 203.93 442.97 214.19 442.93 214.19 440.01 203.91 440.05"/><path class="cls-2" d="M212.33,440.32,209.09,435a.16.16,0,0,0-.13-.07h0a.16.16,0,0,0-.13.08l-3.06,5.38a.19.19,0,0,0,0,.15.15.15,0,0,0,.13.07l6.3,0a.16.16,0,0,0,.13-.08A.14.14,0,0,0,212.33,440.32Z"/><rect class="cls-2" x="140.01" y="451.11" width="0.69" height="2.78" transform="translate(-1.73 0.54) rotate(-0.22)"/><rect class="cls-2" x="140.04" y="460.73" width="0.69" height="2.78" transform="translate(-1.76 0.54) rotate(-0.22)"/><rect class="cls-2" x="140.08" y="470.55" width="0.69" height="2.78" transform="translate(-1.8 0.54) rotate(-0.22)"/><polygon class="cls-2" points="137.66 440.3 137.69 443.23 147.95 443.19 147.95 440.26 137.66 440.3"/><path class="cls-2" d="M146.08,440.57l-3.23-5.36a.16.16,0,0,0-.13-.08h0a.14.14,0,0,0-.13.08l-3.06,5.39a.12.12,0,0,0,0,.14.16.16,0,0,0,.13.08l6.3,0a.17.17,0,0,0,.13-.07A.16.16,0,0,0,146.08,440.57Z"/><path class="cls-2" d="M214.19,442.93l-10.26,0,.45,1.84-.32,30.34,7.2,0c1-.74,2-1.5,3-2.3l-.51-28.05Z"/><path class="cls-2" d="M204.06,475.9v-.75h-.24a.15.15,0,0,0-.15.14l-.41,4.75a60.87,60.87,0,0,0,7-4.17l-6.15,0Z"/><path class="cls-2" d="M204.06,475.15v.75l6.16,0c.35-.24.7-.49,1-.75Z"/><path class="cls-2" d="M148,443.19l-10.26,0,.45,1.84-.31,29.57c.35.26.72.51,1.08.77l9.15,0L147.51,445Z"/><path class="cls-2" d="M148.45,475.5a.15.15,0,0,0-.15-.14h-.24v.74l-8.11,0a61.64,61.64,0,0,0,9,5.09.19.19,0,0,0,0-.08Z"/><path class="cls-2" d="M148.06,475.37l-9.15,0,1,.74,8.12,0Z"/><path class="cls-2" d="M166.26,475v1.63c5.7,6,23.71,5.81,33.21,5.24,1.37-.6,2.71-1.25,4-1.93C196.51,480.53,172.94,482,166.26,475Z"/><path class="cls-2" d="M166.26,476.61l0,9.7a62.62,62.62,0,0,0,8.82.6,61.88,61.88,0,0,0,24.35-5.06C190,482.42,172,482.62,166.26,476.61Z"/><path class="cls-2" d="M155.82,478.12l0,5.8c.59.19,1.19.38,1.8.55l0-6.36Z"/><polygon class="cls-2" points="156.11 469.86 150.76 481.24 162.2 481.2 156.11 469.86"/><polygon class="cls-2" points="156.19 468.1 152.22 476.56 160.71 476.53 156.19 468.1"/><polygon class="cls-2" points="156.23 465.7 153.02 472.54 159.88 472.51 156.23 465.7"/><circle class="cls-2" cx="742.21" cy="370.14" r="1.62"/><circle class="cls-2" cx="741.98" cy="464.71" r="1.62"/><circle class="cls-2" cx="789.25" cy="417.55" r="1.62"/><circle class="cls-2" cx="694.81" cy="417.32" r="1.62"/><circle class="cls-2" cx="775.59" cy="384.12" r="1.62"/><circle class="cls-2" cx="708.55" cy="450.83" r="1.62"/><circle class="cls-2" cx="775.34" cy="450.9" r="1.62"/><circle class="cls-2" cx="708.71" cy="383.96" r="1.62"/><circle class="cls-2" cx="781.28" cy="391.05" r="1.62"/><circle class="cls-2" cx="702.85" cy="443.91" r="1.62"/><circle class="cls-2" cx="768.43" cy="456.58" r="1.62"/><circle class="cls-2" cx="715.63" cy="378.27" r="1.62"/><circle class="cls-2" cx="785.54" cy="398.9" r="1.62"/><circle class="cls-2" cx="698.57" cy="436.07" r="1.62"/><circle class="cls-2" cx="760.59" cy="460.85" r="1.62"/><circle class="cls-2" cx="723.47" cy="374.01" r="1.62"/><circle class="cls-2" cx="788.4" cy="408.18" r="1.62"/><circle class="cls-2" cx="695.68" cy="426.81" r="1.62"/><circle class="cls-2" cx="751.33" cy="463.73" r="1.62"/><circle class="cls-2" cx="732.72" cy="371.13" r="1.62"/><circle class="cls-2" cx="788.21" cy="427.58" r="1.62"/><circle class="cls-2" cx="695.82" cy="407.38" r="1.62"/><circle class="cls-2" cx="731.95" cy="463.55" r="1.62"/><circle class="cls-2" cx="752.12" cy="371.28" r="1.62"/><circle class="cls-2" cx="785.48" cy="436.09" r="1.62"/><circle class="cls-2" cx="698.54" cy="398.87" r="1.62"/><circle class="cls-2" cx="723.45" cy="460.83" r="1.62"/><circle class="cls-2" cx="760.62" cy="374.01" r="1.62"/><circle class="cls-2" cx="780.75" cy="444.57" r="1.62"/><circle class="cls-2" cx="703.24" cy="390.38" r="1.62"/><circle class="cls-2" cx="714.98" cy="456.13" r="1.62"/><circle class="cls-2" cx="769.09" cy="378.71" r="1.62"/><path class="cls-2" d="M770.7,388.84a40.52,40.52,0,1,0,11.8,28.69A40.23,40.23,0,0,0,770.7,388.84Zm-28.83,68.6A40,40,0,1,1,782,417.53,40.06,40.06,0,0,1,741.87,457.44Z"/><path class="cls-2" d="M772.86,386.68a43.59,43.59,0,1,0,12.69,30.86A43.32,43.32,0,0,0,772.86,386.68Zm-31,73.94a43.2,43.2,0,1,1,43.3-43.09A43.23,43.23,0,0,1,741.86,460.62Z"/><path class="cls-2" d="M742.87,371.7a.18.18,0,0,0-.25.09l-2.38,5-3-4.88a.22.22,0,0,0-.21-.09.2.2,0,0,0-.15.17l-.72,5-3.32-4.28a.19.19,0,0,0-.34.09l-.6,5.21L728,374a.2.2,0,0,0-.22-.05.21.21,0,0,0-.12.19l.23,4.9-3.47-3.83a.19.19,0,0,0-.23,0,.18.18,0,0,0-.11.2l.6,5.21-4.09-3.38a.19.19,0,0,0-.32.18l1.17,5.41a.19.19,0,0,0,.19.16h0a.2.2,0,0,0,.15-.23l-1.05-4.86,4,3.34a.18.18,0,0,0,.21,0,.19.19,0,0,0,.1-.19l-.58-5.09,3.43,3.79a.2.2,0,0,0,.22.05.21.21,0,0,0,.12-.19l-.23-4.92,3.74,4a.17.17,0,0,0,.2.05.19.19,0,0,0,.14-.16l.59-5.15,3.3,4.27a.21.21,0,0,0,.21.07.19.19,0,0,0,.14-.16l.71-5,3,4.73a.2.2,0,0,0,.18.09.21.21,0,0,0,.16-.11L743,372A.2.2,0,0,0,742.87,371.7Z"/><path class="cls-2" d="M721.74,382.7l-4.93-3.27a.2.2,0,0,0-.22,0,.19.19,0,0,0-.07.2l1.41,5-5-2.26a.18.18,0,0,0-.21,0,.19.19,0,0,0,0,.21l1.9,4.88-5.27-1.8a.19.19,0,0,0-.21.06.18.18,0,0,0,0,.22l2.49,4.23-4.73-1.73a.2.2,0,0,0-.22.06.2.2,0,0,0,0,.23l2.84,4.29L704.26,392a.2.2,0,0,0-.21.09.2.2,0,0,0,0,.22l3.55,4.24a.19.19,0,0,0,.15.07.19.19,0,0,0,.15-.32l-3.19-3.81,5.12,1.07a.19.19,0,0,0,.2-.08.18.18,0,0,0,0-.22l-2.77-4.19,4.68,1.72a.2.2,0,0,0,.22-.06.2.2,0,0,0,0-.22l-2.5-4.25,5.17,1.77a.21.21,0,0,0,.2-.05.2.2,0,0,0,0-.21L713.23,383l4.92,2.24a.18.18,0,0,0,.2,0,.2.2,0,0,0,.07-.2L717,380l4.49,3a.2.2,0,1,0,.21-.33Z"/><path class="cls-2" d="M707.77,396.32l-6.11-.17a.18.18,0,0,0-.19.12.19.19,0,0,0,.06.22l3.8,3.38-5.4.4a.18.18,0,0,0-.17.13.19.19,0,0,0,.06.21l4,3.38-5.49.94a.19.19,0,0,0-.16.15.22.22,0,0,0,.09.21l4.22,2.52-5.12.77a.19.19,0,0,0-.06.37l4.66,2.38-5.33,1.52a.2.2,0,0,0-.15.18.2.2,0,0,0,.13.19l5.23,2h.07a.21.21,0,0,0,.18-.12.2.2,0,0,0-.11-.26l-4.68-1.76,5.24-1.49a.19.19,0,0,0,.14-.17.18.18,0,0,0-.1-.19L698,408.88l5.05-.76a.19.19,0,0,0,.17-.16.2.2,0,0,0-.09-.2l-4.23-2.54,5.38-.91a.21.21,0,0,0,.16-.14.19.19,0,0,0-.07-.2l-4-3.35,5.39-.39a.21.21,0,0,0,.17-.13.21.21,0,0,0-.06-.21l-3.75-3.34,5.57.16h0a.2.2,0,1,0,0-.39Z"/><path class="cls-2" d="M705.45,434l-5,.53,3.74-3.66a.19.19,0,0,0,0-.21.18.18,0,0,0-.18-.12l-5.13,0,4.14-3a.21.21,0,0,0,.07-.21.18.18,0,0,0-.18-.14l-4.92-.29,4.35-3.3a.2.2,0,0,0,.07-.2.18.18,0,0,0-.14-.15l-5.06-1.13,4.59-2.84a.2.2,0,0,0,.09-.2.18.18,0,0,0-.15-.15L697,417.69l5-2.44a.19.19,0,0,0-.17-.35l-5.49,2.67a.19.19,0,0,0-.11.2.21.21,0,0,0,.14.17l4.94,1.24L696.7,422a.2.2,0,0,0-.09.2.18.18,0,0,0,.15.15l5.11,1.15-4.43,3.37a.19.19,0,0,0-.07.21.22.22,0,0,0,.18.14l4.9.29-4.18,3a.19.19,0,0,0-.07.22.18.18,0,0,0,.18.13l5.25-.05-3.8,3.71a.21.21,0,0,0,0,.23.21.21,0,0,0,.18.11h0l5.5-.59a.19.19,0,0,0,.17-.21A.2.2,0,0,0,705.45,434Z"/><path class="cls-2" d="M717.8,449.31a.21.21,0,0,0-.28-.06L713.4,452l1.6-5a.19.19,0,0,0-.06-.21.18.18,0,0,0-.21,0l-4.47,2.32,2.21-4.48a.2.2,0,0,0,0-.22.19.19,0,0,0-.22,0l-4.49,2,2.31-4.95a.18.18,0,0,0,0-.2.2.2,0,0,0-.2-.07l-5,1.36,2.74-4.65a.22.22,0,0,0,0-.21.2.2,0,0,0-.19-.08l-5,.86,3.43-4.16a.19.19,0,0,0,0-.27.2.2,0,0,0-.28,0l-3.77,4.56a.2.2,0,0,0,0,.22.2.2,0,0,0,.2.1l5.15-.88-2.77,4.71a.2.2,0,0,0,0,.21.19.19,0,0,0,.21.07l5.06-1.37-2.35,5.05a.19.19,0,0,0,0,.22.18.18,0,0,0,.21,0l4.48-2-2.23,4.52a.2.2,0,0,0,0,.22.21.21,0,0,0,.23,0l4.57-2.37-1.64,5.06a.2.2,0,0,0,.07.21.19.19,0,0,0,.12,0,.23.23,0,0,0,.11,0l4.59-3.08A.21.21,0,0,0,717.8,449.31Z"/><path class="cls-2" d="M735.56,457a.19.19,0,0,0-.26.08l-2.24,4.47-.94-5.37a.22.22,0,0,0-.16-.16.19.19,0,0,0-.2.08l-2.8,4.3-.22-5.11a.2.2,0,0,0-.13-.18.19.19,0,0,0-.22.07l-3,3.94-.35-5.46a.17.17,0,0,0-.12-.16.19.19,0,0,0-.21,0L721,457.15l.18-5.39a.21.21,0,0,0-.11-.19.2.2,0,0,0-.22,0L717.15,455l.74-5.52a.19.19,0,1,0-.38,0l-.82,6a.2.2,0,0,0,.1.2.22.22,0,0,0,.22,0l3.77-3.43-.17,5.42a.19.19,0,0,0,.11.18.2.2,0,0,0,.22,0l3.78-3.62.35,5.56a.21.21,0,0,0,.14.17.19.19,0,0,0,.21-.07l3-3.92.22,5.17a.22.22,0,0,0,.15.18.19.19,0,0,0,.21-.08l2.86-4.39.95,5.47a.2.2,0,0,0,.17.16h0a.2.2,0,0,0,.18-.11l2.5-5A.19.19,0,0,0,735.56,457Z"/><path class="cls-2" d="M755.08,455.48a.19.19,0,0,0-.19-.2h0a.2.2,0,0,0-.2.2l0,5-3.26-4.09a.21.21,0,0,0-.21-.07.2.2,0,0,0-.14.17l-.47,5.1-2.58-4.41a.19.19,0,0,0-.2-.1.2.2,0,0,0-.16.16l-.79,4.87-2.84-4.66a.19.19,0,0,0-.19-.09.21.21,0,0,0-.17.13l-1.63,4.92-2.36-4.86a.21.21,0,0,0-.19-.11.21.21,0,0,0-.17.13l-1.71,4.72L735.73,457a.2.2,0,0,0-.25-.12.21.21,0,0,0-.12.25l2.11,5.74a.19.19,0,0,0,.18.12h0a.18.18,0,0,0,.18-.13l1.74-4.79,2.37,4.87a.18.18,0,0,0,.17.11h0a.18.18,0,0,0,.17-.13l1.65-5,2.91,4.75a.18.18,0,0,0,.2.09.22.22,0,0,0,.16-.16l.78-4.85,2.61,4.47a.2.2,0,0,0,.37-.08l.48-5.22,3.31,4.15a.19.19,0,0,0,.21.06.2.2,0,0,0,.13-.19Z"/><path class="cls-2" d="M774.08,449.7l-2.61-4.88a.2.2,0,0,0-.27-.08.18.18,0,0,0-.07.26l2.34,4.39-4.8-2.1a.19.19,0,0,0-.21,0,.2.2,0,0,0-.05.21l1.86,4.67L766,449.57a.21.21,0,0,0-.23,0,.21.21,0,0,0-.06.22l1.57,4.67-4.69-2.79a.18.18,0,0,0-.21,0,.19.19,0,0,0-.08.19l.84,5.11-4.35-3.19a.2.2,0,0,0-.21,0,.23.23,0,0,0-.1.19l.35,5.1-3.79-3.84a.19.19,0,1,0-.27.27l4.15,4.22a.3.3,0,0,0,.14.06l.08,0a.2.2,0,0,0,.11-.19l-.35-5.21,4.4,3.23a.22.22,0,0,0,.22,0,.2.2,0,0,0,.09-.2l-.86-5.17,4.79,2.85a.2.2,0,0,0,.22,0,.19.19,0,0,0,.06-.21l-1.57-4.66,4.27,2.67a.19.19,0,0,0,.23,0,.19.19,0,0,0,.06-.22l-1.9-4.78,4.87,2.13a.21.21,0,0,0,.23,0A.24.24,0,0,0,774.08,449.7Z"/><path class="cls-2" d="M785.66,430.78l-4.71-3a.2.2,0,1,0-.21.33L785,430.8l-5.44.39a.19.19,0,0,0-.11.34l4,3.22-5.11-.3a.21.21,0,0,0-.19.12.2.2,0,0,0,0,.22l3.62,3.35-5.46-.21a.19.19,0,0,0-.18.11.2.2,0,0,0,0,.21l3.19,4.08-5.35-.72a.2.2,0,0,0-.19.09.2.2,0,0,0,0,.22l3,4-5.42-1.3a.19.19,0,0,0-.23.14.2.2,0,0,0,.14.24l5.94,1.42h0a.22.22,0,0,0,.17-.09.2.2,0,0,0,0-.22l-3-4.1,5.36.72a.2.2,0,0,0,.2-.1.18.18,0,0,0,0-.21l-3.22-4.13,5.56.21a.21.21,0,0,0,.19-.12.2.2,0,0,0-.05-.22l-3.61-3.34,5.17.3a.21.21,0,0,0,.2-.12.2.2,0,0,0-.06-.22L780,431.54l5.53-.4a.18.18,0,0,0,.18-.14A.21.21,0,0,0,785.66,430.78Z"/><path class="cls-2" d="M787.62,416.86l-4.74-1.28,4.72-2.13a.2.2,0,0,0,.11-.2.18.18,0,0,0-.15-.17l-5.15-1,4.48-2.85a.19.19,0,0,0-.08-.36l-5.51-.56a.2.2,0,0,0,0,.39l5,.5L781.8,412a.2.2,0,0,0-.09.2.22.22,0,0,0,.15.16l5,1-4.67,2.1a.21.21,0,0,0-.11.2.19.19,0,0,0,.14.17L787,417.1l-4.93,2.34a.21.21,0,0,0-.11.18.19.19,0,0,0,.11.18l4.72,2.14-5.08,1.84a.21.21,0,0,0-.13.17.21.21,0,0,0,.11.19l4.52,2.2-5.41,1.35a.2.2,0,0,0-.14.24.19.19,0,0,0,.19.15h0l5.92-1.49a.19.19,0,0,0,.15-.16.22.22,0,0,0-.11-.2L782.29,424l5.09-1.84a.23.23,0,0,0,.13-.18.2.2,0,0,0-.12-.18l-4.77-2.17,5-2.39a.19.19,0,0,0,.11-.2A.18.18,0,0,0,787.62,416.86Z"/><path class="cls-2" d="M786,404.66a.21.21,0,0,0-.18-.13l-5.21-.2,3.67-4a.2.2,0,0,0,0-.22.2.2,0,0,0-.19-.11l-5.23.31,3.34-4.46a.19.19,0,0,0-.2-.31l-4.79,1.07,3.1-4a.21.21,0,0,0,0-.23.19.19,0,0,0-.22-.07l-5,1.38,2.63-4.62a.21.21,0,0,0,0-.23.21.21,0,0,0-.22,0l-5.13,2.08a.19.19,0,0,0-.11.25.2.2,0,0,0,.26.11l4.6-1.87-2.59,4.55a.2.2,0,0,0,.22.28l4.85-1.35-3.08,3.93a.2.2,0,0,0,0,.22.2.2,0,0,0,.21.09l4.81-1.08-3.27,4.38a.18.18,0,0,0,0,.2.21.21,0,0,0,.19.11l5.17-.31-3.63,4a.17.17,0,0,0,0,.2.19.19,0,0,0,.17.12l5.11.2-4.22,3.36a.19.19,0,0,0,.13.34.19.19,0,0,0,.12,0l4.63-3.69A.2.2,0,0,0,786,404.66Z"/><path class="cls-2" d="M774.61,385.11a.21.21,0,0,0-.23,0L770,387.67l1.28-5.26a.19.19,0,0,0-.07-.2.2.2,0,0,0-.22,0L766.53,385l.8-5.51a.2.2,0,0,0-.1-.2.18.18,0,0,0-.22,0l-3.7,3.23.84-5.11a.19.19,0,0,0-.1-.2.2.2,0,0,0-.23,0l-3.7,3.71.19-5.55a.18.18,0,0,0-.13-.18.19.19,0,0,0-.22.06l-3.17,4-.44-5.26a.2.2,0,0,0-.15-.17.19.19,0,0,0-.21.09l-2.57,4.23-1.2-5.2a.18.18,0,0,0-.16-.15.2.2,0,0,0-.2.1l-2.42,4.33-1.68-5.13a.19.19,0,0,0-.18-.13h0a.2.2,0,0,0-.19.13l-1.69,4.7-2.74-5a.19.19,0,1,0-.34.19l2.94,5.41a.21.21,0,0,0,.19.1.18.18,0,0,0,.16-.13l1.66-4.58,1.64,5a.19.19,0,0,0,.16.14.18.18,0,0,0,.19-.1l2.4-4.28,1.19,5.17a.19.19,0,0,0,.16.15.18.18,0,0,0,.19-.09l2.51-4.13.44,5.15a.19.19,0,0,0,.13.17.21.21,0,0,0,.21-.07L759.9,376l-.18,5.45a.21.21,0,0,0,.12.19.19.19,0,0,0,.21-.05l3.62-3.62-.83,5a.2.2,0,0,0,.09.21.2.2,0,0,0,.23,0l3.71-3.25-.78,5.41a.19.19,0,0,0,.08.19.2.2,0,0,0,.21,0l4.4-2.75L769.5,388a.19.19,0,0,0,.29.21l4.33-2.54L772.25,391a.2.2,0,0,0,.12.25h.07a.19.19,0,0,0,.18-.13l2-5.75A.2.2,0,0,0,774.61,385.11Z"/><path class="cls-2" d="M761.91,376.25a.21.21,0,0,0-.23,0l-3.94,3.56.37-5.23a.2.2,0,0,0-.12-.2.2.2,0,0,0-.22.06l-3.3,4v-4.91a.18.18,0,0,0-.13-.18.19.19,0,0,0-.21.05l-3.64,4.22-.83-5.17a.19.19,0,0,0-.35-.08l-3.12,4.42-.94-5a.19.19,0,0,0-.16-.15.18.18,0,0,0-.2.09l-2.83,5-2.59-4.89a.21.21,0,0,0-.27-.08.19.19,0,0,0-.07.27l2.75,5.2a.21.21,0,0,0,.17.1.16.16,0,0,0,.17-.1L745,372.4l.93,4.94a.21.21,0,0,0,.15.15.19.19,0,0,0,.2-.08l3.11-4.41.82,5.12a.23.23,0,0,0,.14.16.22.22,0,0,0,.21-.06l3.56-4.14V379a.18.18,0,0,0,.13.18.18.18,0,0,0,.21-.06l3.26-3.94-.36,5.11a.2.2,0,0,0,.11.19.2.2,0,0,0,.22,0l3.88-3.51-.83,4.9a.2.2,0,0,0,.16.23h0a.19.19,0,0,0,.19-.16l.93-5.46A.22.22,0,0,0,761.91,376.25Z"/><path class="cls-2" d="M778.9,390.46a.18.18,0,0,0-.21-.08l-5.16,1.31,2.65-4.41a.21.21,0,0,0,0-.23.2.2,0,0,0-.23-.05l-4.64,1.94,2.3-4.34a.18.18,0,0,0,0-.22.2.2,0,0,0-.22-.05l-5.18,2,1.68-5a.18.18,0,0,0-.05-.21.22.22,0,0,0-.22,0l-4.86,2.48,1.18-5.08a.19.19,0,0,0-.08-.21.2.2,0,0,0-.22,0l-4.78,3.48a.19.19,0,0,0,0,.27.19.19,0,0,0,.27.05L765.4,379l-1.17,5a.19.19,0,0,0,.07.19.2.2,0,0,0,.21,0l4.81-2.45-1.66,4.91a.21.21,0,0,0,.05.2.2.2,0,0,0,.21,0l5.08-2-2.31,4.36a.18.18,0,0,0,0,.22.2.2,0,0,0,.22.05l4.6-1.92L773,391.9a.22.22,0,0,0,0,.22.21.21,0,0,0,.21.07l5.07-1.3-3,3.95a.18.18,0,0,0,0,.27.15.15,0,0,0,.11,0,.2.2,0,0,0,.16-.07l3.36-4.4A.2.2,0,0,0,778.9,390.46Z"/><path class="cls-2" d="M787.23,410.85l-5.39-1.28,4.55-2.59a.19.19,0,0,0,.1-.21.2.2,0,0,0-.17-.15l-5.16-.54,4.1-2.71a.19.19,0,0,0-.08-.36l-5.53-.69,3.86-3.55a.23.23,0,0,0,0-.21.19.19,0,0,0-.18-.13l-5.41-.16,3.65-3.55a.22.22,0,0,0,0-.22.2.2,0,0,0-.19-.11l-6.1.44a.21.21,0,0,0-.18.21.2.2,0,0,0,.21.18l5.56-.41-3.6,3.51a.2.2,0,0,0,0,.21.19.19,0,0,0,.17.12l5.4.16-3.81,3.51a.21.21,0,0,0-.05.2.19.19,0,0,0,.16.14l5.42.67-4.12,2.72a.21.21,0,0,0-.08.21.2.2,0,0,0,.17.15l5.09.53-4.46,2.53a.2.2,0,0,0-.09.2.19.19,0,0,0,.14.16l5.31,1.27-4.6,2a.21.21,0,0,0-.1.26.2.2,0,0,0,.18.11h.08l5.13-2.2a.2.2,0,0,0,0-.37Z"/><path class="cls-2" d="M787.74,415.55l-5.61-2.42a.19.19,0,0,0-.25.1.19.19,0,0,0,.1.26l5.11,2.21-4.81,1.44a.22.22,0,0,0-.14.17.21.21,0,0,0,.1.19l4.72,2.63-5,1.35a.21.21,0,0,0-.14.16.2.2,0,0,0,.08.19l4.49,3.11-4.9.51a.2.2,0,0,0-.17.15.21.21,0,0,0,.08.21l4.26,2.82-5.12.18a.23.23,0,0,0-.17.13.18.18,0,0,0,0,.21l3.9,3.49-5-.31a.19.19,0,0,0-.2.19.18.18,0,0,0,.18.2l5.52.35h0a.19.19,0,0,0,.13-.34l-4-3.54,5.24-.19a.2.2,0,0,0,.18-.14.19.19,0,0,0-.08-.21l-4.32-2.87,4.89-.5a.2.2,0,0,0,.17-.15.2.2,0,0,0-.08-.21l-4.58-3.17,5.06-1.37a.18.18,0,0,0,.14-.16.17.17,0,0,0-.09-.19l-4.73-2.65,4.88-1.46a.19.19,0,0,0,.14-.17A.23.23,0,0,0,787.74,415.55Z"/><path class="cls-2" d="M783.34,436.83l-4-4.39a.21.21,0,0,0-.28,0,.2.2,0,0,0,0,.28l3.62,4-5.08-.63a.21.21,0,0,0-.19.09.2.2,0,0,0,0,.21l2.94,4.53-5-1.14a.2.2,0,0,0-.22.28l2.52,4.84-4.57-1.83a.17.17,0,0,0-.22.05.2.2,0,0,0,0,.22l2.39,4.38-4.56-2.12a.18.18,0,0,0-.21,0,.19.19,0,0,0,0,.21l1.82,4.91L768,448.14a.18.18,0,0,0-.26.07.18.18,0,0,0,.06.26l4.73,2.88a.17.17,0,0,0,.1,0,.17.17,0,0,0,.12,0,.19.19,0,0,0,.06-.22l-1.85-5,4.67,2.17a.2.2,0,0,0,.22,0,.2.2,0,0,0,0-.23l-2.42-4.42,4.56,1.83a.19.19,0,0,0,.21-.05.18.18,0,0,0,0-.22l-2.57-4.94,5.12,1.15a.19.19,0,0,0,.2-.08.2.2,0,0,0,0-.22l-3-4.57,5.18.64a.18.18,0,0,0,.19-.1A.2.2,0,0,0,783.34,436.83Z"/><path class="cls-2" d="M768,448.3a.19.19,0,0,0-.22-.16.2.2,0,0,0-.16.23l1,5.48-3.86-3.21a.2.2,0,0,0-.22,0,.18.18,0,0,0-.1.19l.41,5.38-3.89-3.42a.2.2,0,0,0-.21,0,.19.19,0,0,0-.12.17l-.1,5.47-3.14-3.81a.19.19,0,0,0-.34.13v5.11l-3-4.16a.19.19,0,0,0-.35.08l-.7,5.41-2.44-4.36a.2.2,0,0,0-.27-.08.21.21,0,0,0-.07.27l2.72,4.88a.21.21,0,0,0,.17.1h0a.19.19,0,0,0,.16-.16l.71-5.51,3,4.26a.19.19,0,0,0,.22.07.18.18,0,0,0,.13-.18v-5.18l3.12,3.79a.22.22,0,0,0,.22.06.21.21,0,0,0,.13-.18l.1-5.57,3.94,3.45a.18.18,0,0,0,.22,0,.2.2,0,0,0,.11-.19l-.42-5.4,3.92,3.26a.2.2,0,0,0,.22,0,.2.2,0,0,0,.1-.2Z"/><path class="cls-2" d="M750.36,456.59a.19.19,0,0,0-.25.12L748.43,462l-1.92-4.63a.18.18,0,0,0-.18-.12.19.19,0,0,0-.18.11L744,462.33l-1.85-4.83a.19.19,0,0,0-.35,0l-2.64,4.78-1-4.83a.19.19,0,0,0-.16-.15.2.2,0,0,0-.2.1l-2.39,4.53-.69-5.08a.21.21,0,0,0-.14-.16.2.2,0,0,0-.21.08L731.29,461l-.19-5a.2.2,0,0,0-.2-.19.21.21,0,0,0-.19.2l.22,5.53a.19.19,0,0,0,.13.18.19.19,0,0,0,.22-.07l3.12-4.29.71,5.19a.2.2,0,0,0,.37.07l2.41-4.59,1,4.82a.18.18,0,0,0,.16.15.19.19,0,0,0,.2-.1l2.69-4.87,1.87,4.89a.19.19,0,0,0,.18.13h0a.2.2,0,0,0,.18-.12l2.15-5,1.95,4.71a.21.21,0,0,0,.19.12.2.2,0,0,0,.18-.14l1.84-5.82A.19.19,0,0,0,750.36,456.59Z"/><path class="cls-2" d="M731,455.75a.19.19,0,0,0-.27,0l-3.61,4,.11-5.11a.18.18,0,0,0-.1-.18.2.2,0,0,0-.21,0l-4.21,3.38.62-5.14a.18.18,0,0,0-.09-.19.2.2,0,0,0-.21,0l-4.56,3,1.36-4.74a.18.18,0,0,0-.07-.21.18.18,0,0,0-.22,0l-4.12,2.82,1.65-4.75a.19.19,0,0,0,0-.21.2.2,0,0,0-.22,0l-4.69,2.3,2.14-4.48a.19.19,0,0,0-.35-.17l-2.39,5a.2.2,0,0,0,.26.26l4.78-2.35-1.69,4.87a.2.2,0,0,0,.3.22l4.15-2.85L717.92,456a.19.19,0,0,0,.29.21l4.65-3.05-.62,5.2a.19.19,0,0,0,.31.17l4.26-3.41-.13,5.21a.2.2,0,0,0,.13.19h.07a.18.18,0,0,0,.14-.06l4-4.39A.2.2,0,0,0,731,455.75Z"/><path class="cls-2" d="M714,445.93l-5.35,1.53,2.8-4.16a.22.22,0,0,0,0-.22.2.2,0,0,0-.2-.09l-5.31,1,3-4.22a.22.22,0,0,0,0-.21.21.21,0,0,0-.19-.1l-5.44.45,3.47-3.51a.18.18,0,0,0,0-.22.2.2,0,0,0-.19-.11l-5.09.52,3.84-3.38a.21.21,0,0,0,.06-.22.23.23,0,0,0-.18-.13l-5.45-.15,4.09-2.86a.19.19,0,0,0-.22-.32l-4.58,3.2a.19.19,0,0,0-.07.22.21.21,0,0,0,.18.14l5.55.15-3.93,3.46a.18.18,0,0,0,0,.22.19.19,0,0,0,.2.12l5.15-.52L702.64,440a.2.2,0,0,0,0,.22.2.2,0,0,0,.19.11l5.55-.46-3,4.27a.2.2,0,0,0,0,.22.22.22,0,0,0,.2.09l5.33-1L708,447.68a.2.2,0,0,0,0,.23.21.21,0,0,0,.16.08h.05l5.87-1.68a.2.2,0,0,0,.14-.25A.21.21,0,0,0,714,445.93Z"/><path class="cls-2" d="M703.78,429.39l-5.46-1.11,4.42-2.4a.19.19,0,0,0,.1-.19.2.2,0,0,0-.14-.17l-5.15-1.61,4.62-2.35a.19.19,0,0,0,.11-.18.21.21,0,0,0-.12-.17l-5-2.12,4.69-1.51a.19.19,0,0,0,.14-.18.19.19,0,0,0-.13-.18l-4.75-1.9,5-1.22a.19.19,0,0,0,.14-.16.18.18,0,0,0-.09-.2l-4.53-2.61,4.91-.72a.2.2,0,0,0,.17-.22.21.21,0,0,0-.22-.17l-5.48.8a.19.19,0,0,0-.16.16.18.18,0,0,0,.09.2l4.6,2.66-5.09,1.25a.2.2,0,0,0-.15.18.2.2,0,0,0,.12.19l4.81,1.92-4.68,1.5a.19.19,0,0,0,0,.36l5.13,2.16L697,423.78a.2.2,0,0,0-.11.19.19.19,0,0,0,.14.17l5.16,1.62-4.47,2.43a.19.19,0,0,0-.1.2.18.18,0,0,0,.15.16l6,1.23h0a.2.2,0,0,0,.2-.16A.2.2,0,0,0,703.78,429.39Z"/><path class="cls-2" d="M710.53,392.23l-5.21-1.85a.21.21,0,0,0-.22.07.2.2,0,0,0,0,.22l2.83,4.5-5-1.16a.2.2,0,0,0-.19.32l3.27,3.83-4.83-.86a.2.2,0,0,0-.19.31l3.53,4.31-5.24-.08a.2.2,0,0,0-.18.12.2.2,0,0,0,0,.22L703,406l-5.2.43a.2.2,0,0,0-.17.15.18.18,0,0,0,.07.21l4.78,3.47a.19.19,0,0,0,.12,0,.18.18,0,0,0,.16-.08.19.19,0,0,0-.05-.27l-4.36-3.17,5.1-.42a.2.2,0,0,0,.16-.13.18.18,0,0,0,0-.2l-3.81-3.83,5.18.07a.19.19,0,0,0,.18-.11.18.18,0,0,0,0-.21l-3.46-4.22,4.85.86a.19.19,0,0,0,.18-.32l-3.24-3.79,4.9,1.14a.18.18,0,0,0,.2-.08.18.18,0,0,0,0-.21l-2.79-4.43,4.68,1.66a.19.19,0,0,0,.25-.12A.2.2,0,0,0,710.53,392.23Z"/><path class="cls-2" d="M739.39,371.78a.19.19,0,0,0-.26.09L736.62,377l-1.9-4.63a.19.19,0,0,0-.19-.11.18.18,0,0,0-.18.14l-1.45,5.2-2.61-4.22a.19.19,0,0,0-.2-.09.18.18,0,0,0-.16.15l-1,5.25-2.75-4.12a.2.2,0,0,0-.22-.08.22.22,0,0,0-.14.18l-.21,5.27-3.34-3.84a.19.19,0,0,0-.22-.05.18.18,0,0,0-.12.19l.43,5.53-3.86-3.54a.18.18,0,0,0-.23,0,.19.19,0,0,0-.09.21l1.06,5.07-3.83-3.08a.2.2,0,0,0-.22,0,.18.18,0,0,0-.09.2l1,5.47-4.56-2.57a.2.2,0,0,0-.22,0,.18.18,0,0,0-.06.2l1.51,5.2-4.5-2.38a.18.18,0,0,0-.22,0,.17.17,0,0,0-.05.21l2.29,5.67a.2.2,0,0,0,.18.12l.07,0a.19.19,0,0,0,.11-.25l-2.09-5.17,4.43,2.35a.2.2,0,0,0,.22,0,.2.2,0,0,0,.06-.21l-1.51-5.18,4.52,2.55a.22.22,0,0,0,.21,0,.19.19,0,0,0,.07-.2l-1-5.36,3.85,3.07a.18.18,0,0,0,.22,0,.2.2,0,0,0,.09-.21l-1-5,3.77,3.46a.2.2,0,0,0,.22,0,.23.23,0,0,0,.11-.2l-.43-5.43,3.28,3.77a.2.2,0,0,0,.22.05.2.2,0,0,0,.13-.17l.2-5.16,2.69,4a.18.18,0,0,0,.2.08.19.19,0,0,0,.15-.16l1-5.21,2.59,4.17a.2.2,0,0,0,.19.09.21.21,0,0,0,.16-.14l1.42-5.08,1.85,4.5a.19.19,0,0,0,.17.12.21.21,0,0,0,.19-.11l2.69-5.53A.19.19,0,0,0,739.39,371.78Z"/><path class="cls-2" d="M784.32,399.66a46,46,0,1,0,3.57,17.88A45.72,45.72,0,0,0,784.32,399.66Zm-42.47,62.65a44.89,44.89,0,1,1,45-44.77A44.93,44.93,0,0,1,741.85,462.31Z"/><path class="cls-2" d="M744.84,377.31a.08.08,0,0,0-.09.09L739,457.67a.08.08,0,0,0,.08.09h0a.08.08,0,0,0,.09-.08l5.75-80.27A.09.09,0,0,0,744.84,377.31Z"/><path class="cls-2" d="M782.11,420.32l-80.27-5.75a.09.09,0,0,0-.1.09.08.08,0,0,0,.08.09l80.27,5.75h0a.08.08,0,0,0,.09-.08A.08.08,0,0,0,782.11,420.32Z"/><path class="cls-2" d="M772.32,391.12l-60.83,52.7a.08.08,0,0,0,0,.12.08.08,0,0,0,.13,0l60.83-52.69a.1.1,0,0,0,0-.13A.09.09,0,0,0,772.32,391.12Z"/><path class="cls-2" d="M715.69,387.06a.09.09,0,0,0-.13,0,.09.09,0,0,0,0,.13L768.24,448a.11.11,0,0,0,.07,0l.06,0a.09.09,0,0,0,0-.13Z"/><path class="cls-2" d="M778.21,435l-72.42-35.09a.08.08,0,0,0-.12,0,.09.09,0,0,0,0,.12l72.42,35.1h0a.11.11,0,0,0,.09-.05A.1.1,0,0,0,778.21,435Z"/><path class="cls-2" d="M759.55,381.24a.09.09,0,0,0-.12.05l-35.1,72.42a.09.09,0,0,0,0,.12h0a.1.1,0,0,0,.08,0l35.09-72.42A.09.09,0,0,0,759.55,381.24Z"/><path class="cls-2" d="M729.43,379.3a.1.1,0,0,0-.11-.06.09.09,0,0,0-.06.12l25.24,76.41a.09.09,0,0,0,.08.07h0a.08.08,0,0,0,.06-.11Z"/><path class="cls-2" d="M780.14,404.83l-76.41,25.24a.09.09,0,0,0-.06.12.1.1,0,0,0,.08.06h0L780.2,405a.09.09,0,0,0,.06-.11A.09.09,0,0,0,780.14,404.83Z"/><path class="cls-2" d="M750.44,378.11a.09.09,0,0,0-.11.07l-16.91,78.68a.09.09,0,0,0,.07.11h0a.1.1,0,0,0,.09-.07l16.91-78.68A.09.09,0,0,0,750.44,378.11Z"/><path class="cls-2" d="M781.32,425.9,702.64,409a.09.09,0,0,0-.11.07.1.1,0,0,0,.07.11l78.68,16.91h0a.08.08,0,0,0,.09-.07A.09.09,0,0,0,781.32,425.9Z"/><path class="cls-2" d="M775.71,395.62,708.12,439.3a.1.1,0,0,0,0,.13.12.12,0,0,0,.08,0l.05,0,67.59-43.67a.09.09,0,0,0-.1-.16Z"/><path class="cls-2" d="M720.2,383.69a.09.09,0,0,0-.12,0,.09.09,0,0,0,0,.13l43.68,67.59s0,.05.07.05l.05,0a.09.09,0,0,0,0-.13Z"/><path class="cls-2" d="M775.42,439.9,708.61,395a.09.09,0,0,0-.13,0,.11.11,0,0,0,0,.13l66.8,44.87.06,0a.08.08,0,0,0,.07-.05A.08.08,0,0,0,775.42,439.9Z"/><path class="cls-2" d="M764.45,384.06a.09.09,0,0,0-.13,0l-44.87,66.81a.1.1,0,0,0,0,.13h0a.09.09,0,0,0,.08,0l44.86-66.8A.09.09,0,0,0,764.45,384.06Z"/><path class="cls-2" d="M734.9,377.93a.09.09,0,1,0-.18,0L749,457.15a.11.11,0,0,0,.09.08h0a.08.08,0,0,0,.07-.1Z"/><path class="cls-2" d="M781.54,410.29,702.35,424.6a.09.09,0,0,0-.07.11.09.09,0,0,0,.09.08h0l79.19-14.31a.09.09,0,1,0,0-.18Z"/><path class="cls-2" d="M755.45,379.53a.09.09,0,0,0-.12.06l-26.91,75.84a.08.08,0,0,0,.06.11h0a.08.08,0,0,0,.08-.06l26.92-75.84A.09.09,0,0,0,755.45,379.53Z"/><path class="cls-2" d="M779.92,430.91,704.07,404a.09.09,0,0,0-.11.06.1.1,0,0,0,0,.12l75.84,26.91h0A.09.09,0,0,0,780,431,.09.09,0,0,0,779.92,430.91Z"/><path class="cls-2" d="M778.38,400.2c0-.05-.08-.07-.12,0l-72.67,34.59a.11.11,0,0,0,0,.13.1.1,0,0,0,.08.05h0l72.66-34.6A.09.09,0,0,0,778.38,400.2Z"/><path class="cls-2" d="M759.35,453.83l-34.6-72.66a.09.09,0,0,0-.12-.05.1.1,0,0,0,0,.13l34.6,72.66a.09.09,0,0,0,.08,0h0A.09.09,0,0,0,759.35,453.83Z"/><path class="cls-2" d="M772.25,444l-60.46-53.11a.09.09,0,0,0-.13,0,.09.09,0,0,0,0,.13l60.46,53.11.06,0a.08.08,0,0,0,.07,0A.09.09,0,0,0,772.25,444Z"/><path class="cls-2" d="M768.58,387.24a.09.09,0,0,0-.13,0l-53.11,60.46a.09.09,0,0,0,0,.13l.06,0a.11.11,0,0,0,.07,0l53.11-60.46A.09.09,0,0,0,768.58,387.24Z"/><path class="cls-2" d="M740.06,377.34a.08.08,0,0,0-.09-.08.09.09,0,0,0-.09.09l4,80.38a.11.11,0,0,0,.1.09h0a.1.1,0,0,0,.09-.1Z"/><path class="cls-2" d="M782.15,415.45l-80.38,4a.09.09,0,0,0-.09.09.11.11,0,0,0,.09.09h0l80.38-4a.08.08,0,0,0,.08-.1A.09.09,0,0,0,782.15,415.45Z"/><path class="cls-2" d="M742.65,417.36h0a.27.27,0,0,0,0-.12h0s0-.07-.05-.1h0l-.07-.09h0l-.08-.07h0l-.08-.05h0l-.07,0h-.32l0,0-.07,0h0l-.08.05h0l-.09.07h0a.39.39,0,0,0-.08.1h0l-.06.11h0l0,.12h0l-10.09,57.33a.64.64,0,0,0,.52.75h.11a.66.66,0,0,0,.65-.54L742,421.29,751.19,475a.66.66,0,0,0,.64.54h.11a.64.64,0,0,0,.53-.75Z"/><path class="cls-2" d="M742,417.47h0Zm1.14,6.71-1.14-6.7-1.23,6.64Z"/><circle class="cls-2" cx="741.97" cy="417.43" r="2.73"/><path class="cls-2" d="M893.69,457.46a4.15,4.15,0,0,1,.34,2.25,17.36,17.36,0,0,0,0,2,7.08,7.08,0,0,0,.19,1.12,2.41,2.41,0,0,0,.18-.51,21.36,21.36,0,0,0,.93-3.33,6,6,0,0,0-.5-3.81c-.81-3.76,1.74-6,3.8-8.66,0,1.34-.06,2.68-.07,4a33.74,33.74,0,0,1-.76,7,11,11,0,0,0-.16,4,6.41,6.41,0,0,1,0,2.31c-.56,2.53-.78,5.12-1.18,7.67a.54.54,0,0,0,.22.57c.51.44.6.68.24,1.36a2.35,2.35,0,0,0-.17.44.35.35,0,0,0,.19.42,1.1,1.1,0,0,0,.78.19c.38-.07.76-.17,1.15-.24.2,0,.23-.15.18-.32a.63.63,0,0,0-.12-.23l-.74-.74a.75.75,0,0,1-.27-.64c0-.46,0-.93,0-1.39.06-1.52.1-3,.19-4.54a54.43,54.43,0,0,1,.61-5.55,3.73,3.73,0,0,1,.24-1,6,6,0,0,0,.48-1.49,13.85,13.85,0,0,1,.8-2.9,17.09,17.09,0,0,1,2.41-4c.17-.2.31-.41.45-.61a1.35,1.35,0,0,0,.26.32.59.59,0,0,0,0,.23A16.33,16.33,0,0,1,904,455a9.67,9.67,0,0,1-.44,3.62.59.59,0,0,0,0,.32,38.28,38.28,0,0,0,1.44,4.94,53.08,53.08,0,0,1,2.59,8.35.23.23,0,0,0,.24.21c.18,0,.35.08.53.12a.55.55,0,0,1,.36.89c-.18.26-.15.31.12.48l.19.08a4.48,4.48,0,0,0,1.71-.08c.11,0,.15-.08.1-.2-.34-.79-.6-1-1.45-.92l0,0a1.9,1.9,0,0,0-.15-1.51c-.21-.44-.4-.89-.59-1.33a30,30,0,0,1-2.44-7.89,13,13,0,0,1-.14-3.3,2.94,2.94,0,0,1,.6-1.65,1.45,1.45,0,0,0,.25-.6,18,18,0,0,1,1-3.37l.55-1.26a1.11,1.11,0,0,0,.45-.3l.05-.07h.44a8.84,8.84,0,0,0,2.67-.15h.06a5.51,5.51,0,0,0,2.56-1,9.15,9.15,0,0,0,1.31-.93,7.79,7.79,0,0,0-.43,1.26,9.81,9.81,0,0,0-.06,2.76c.08.8.14,1.6.19,2.4a11.15,11.15,0,0,1-.33,2.87,7.8,7.8,0,0,0-.12,2.41c0,.42.12.84.17,1.26a21.52,21.52,0,0,1,0,3.59c-.08,1.38-.27,2.75-.25,4.14a14.53,14.53,0,0,0,.57,4.25.63.63,0,0,1,0,.38c-.1.27,0,.38.27.37a4.84,4.84,0,0,1,.53,0,3,3,0,0,1-.37.3.22.22,0,0,0-.09.21.28.28,0,0,0,.16.16,2.48,2.48,0,0,0,.39.1,5.33,5.33,0,0,0,1.69.05c0-.85,0-.85-.63-1.41a1.14,1.14,0,0,1-.31-.47c-.11-.36-.16-.74-.26-1.1a10.73,10.73,0,0,1-.44-2.57c0-1,0-1.93.06-2.89.12-1.53.28-3.05.49-4.57s.49-3,.75-4.45c.31-1.69.6-3.39.94-5.07.3-1.45.66-2.89,1-4.33l.06-.24a.12.12,0,0,1,.06.09c.1,1.57.23,3.14.28,4.72,0,.79-.11,1.58-.13,2.37-.06,1.93-.1,3.85-.14,5.77,0,.62,0,1.25,0,1.86.13,1.58.26,3.15.42,4.72.15,1.35.34,2.71.5,4.06a.31.31,0,0,0,.3.33.87.87,0,0,1,.67.65,2.51,2.51,0,0,1,.1,1.3l.79.2c.36.08.73.17,1.1.22s.39-.09.39-.36a1.21,1.21,0,0,0-.13-.63,2.42,2.42,0,0,0-1.41-1l-.41-.09c0-.13,0-.24,0-.36-.11-1-.24-1.92-.32-2.88-.12-1.25-.21-2.5-.29-3.75-.06-.83-.11-1.65-.11-2.47s0-1.46.07-2.19c.07-2.05.21-4.1.48-6.13a18.73,18.73,0,0,1,1-4.18,9.42,9.42,0,0,0,.45-1.36,33.11,33.11,0,0,0,.56-4.43,13,13,0,0,1,.18-1.66,11.71,11.71,0,0,1,.54-1.61,1.84,1.84,0,0,0,.09-1,4.87,4.87,0,0,0-.87-2c-.18-.28-.38-.56-.55-.85a.31.31,0,0,1,0-.25c.24-.53.46-1.06.74-1.57,1-1.87,2-3.75,3.07-5.59a30.51,30.51,0,0,0,3.14-7.67c.45-1.73.78-3.48,1.09-5.25s.77-3.57,1.17-5.35c.12-.49.26-1,.43-1.47a.52.52,0,0,1,.33-.32,6.1,6.1,0,0,1,1.28,0,6.21,6.21,0,0,0,2.61,0,3.58,3.58,0,0,1,1-.08c.73,0,1.46.1,2.18.18a1.86,1.86,0,0,0,1.37-.44,3.08,3.08,0,0,0-.42-.5,11.74,11.74,0,0,0-1.24-.89c-.75-.45-1.53-.85-2.29-1.27a3,3,0,0,1-1.43-1.42,1.16,1.16,0,0,0-1.22-.7,3.51,3.51,0,0,1-1.25,0,1.14,1.14,0,0,1-.6-.37,2,2,0,0,1-.35-1.13c-.07-.55-.17-.64-.72-.64h-.07a.73.73,0,0,0-.72.26.48.48,0,0,0,0,.71,3.32,3.32,0,0,0,.68.41,2.42,2.42,0,0,1,1,.85.75.75,0,0,1-1,.49,2.51,2.51,0,0,1-.67-.22.44.44,0,0,0-.6.13c-.52.6-1.07,1.19-1.57,1.81a11,11,0,0,0-1.77,3.31c-.37,1.1-.66,2.22-1,3.33A25.22,25.22,0,0,1,924,421a13.51,13.51,0,0,1-.89,1.25,40.64,40.64,0,0,1-4.88,4.76c-1.51,1.28-3.11,2.45-4.67,3.67-.2.16-.44.27-.63.45s-.42.52-.65.77c-.54.56-1.07,1.13-1.62,1.67a2.9,2.9,0,0,1-.66.49,20,20,0,0,1-4.47,1.71,11.56,11.56,0,0,0-3.84,1.72,3.54,3.54,0,0,0-.86.72,8.47,8.47,0,0,0-1.2,2.19,20.84,20.84,0,0,0-.67,2.43l-.09.17c-.91,2.45-3,4.14-4.55,6.22a7.26,7.26,0,0,0-1.34,4.39,2.8,2.8,0,0,0-.13,2A11,11,0,0,0,893.69,457.46Z"/></g></svg>