<svg id="Layer_1" data-name="Layer 1" xmlns="http://www.w3.org/2000/svg" viewBox="0 0 1200 480"><defs><style>.cls-1{fill:#24cc00;}.cls-2{font-size:100px;}.cls-2,.cls-4,.cls-8{fill:#fff;}.cls-2,.cls-4{font-family:Raleway-Bold, Raleway;font-weight:700;}.cls-3{letter-spacing:-0.01em;}.cls-4{font-size:97px;}.cls-5{letter-spacing:0em;}.cls-6{letter-spacing:-0.01em;}.cls-7{letter-spacing:-0.07em;}</style></defs><title>Business Admin short</title><rect class="cls-1" x="-60.75" width="1303.5" height="609.3"/><text class="cls-2" transform="translate(355.8 163.29)">BUSIN<tspan class="cls-3" x="309.2" y="0">E</tspan><tspan x="367.8" y="0">SS</tspan></text><text class="cls-4" transform="translate(189 269.85)">ADMINI<tspan class="cls-5" x="348.03" y="0">S</tspan><tspan x="407.01" y="0">T</tspan><tspan class="cls-6" x="467.05" y="0">R</tspan><tspan class="cls-7" x="530.49" y="0">A</tspan><tspan x="588.88" y="0">TION</tspan></text><polygon class="cls-8" points="16.23 346.08 -60.75 479.41 93.2 479.41 16.23 346.08"/><polygon class="cls-8" points="40.36 354.3 -36.62 487.62 117.34 487.62 40.36 354.3"/><polygon class="cls-8" points="537.5 438.92 460.53 572.25 614.48 572.25 537.5 438.92"/><polygon class="cls-8" points="567.75 407.54 490.77 540.87 644.73 540.87 567.75 407.54"/><polygon class="cls-8" points="584.27 411.15 507.29 544.48 661.25 544.48 584.27 411.15"/><circle class="cls-8" cx="315.23" cy="507.89" r="74.23"/><circle class="cls-8" cx="1143.63" cy="506.58" r="99.12"/><circle class="cls-8" cx="232.25" cy="502.86" r="33.61"/><circle class="cls-8" cx="254.22" cy="493.89" r="33.61"/><circle class="cls-8" cx="390.46" cy="496.89" r="33.61"/><circle class="cls-8" cx="644.86" cy="528" r="53.79"/><circle class="cls-8" cx="1030.21" cy="507.58" r="38.33"/><circle class="cls-8" cx="1062.29" cy="493.89" r="38.33"/><rect class="cls-8" x="-31.82" y="477.82" width="1046.78" height="107.26"/><rect class="cls-8" x="153.55" y="423.67" width="4.58" height="8.5" transform="translate(-1.63 0.6) rotate(-0.22)"/><path class="cls-8" d="M158.25,423.8a25.16,25.16,0,0,1-2.43-9.82h-.06a25.19,25.19,0,0,1-2.37,9.84Z"/><polygon class="cls-8" points="158.24 431.94 153.5 431.96 152.54 432.39 152.52 433.08 153.29 434.57 153.39 458.95 158.82 458.93 158.72 434.6 159.3 432.9 159.3 432.21 158.24 431.94"/><polygon class="cls-8" points="158.24 431.94 153.5 431.96 152.54 432.39 152.52 433.08 153.29 434.57 158.72 434.53 159.3 432.9 159.3 432.21 158.24 431.94"/><rect class="cls-8" x="153.04" y="424.77" width="5.67" height="1.92" transform="translate(-1.62 0.6) rotate(-0.22)"/><polygon class="cls-8" points="153.04 426.69 153.63 428.5 158.13 428.48 158.71 426.67 153.04 426.69"/><rect class="cls-8" x="177.23" y="429.48" width="7.2" height="13.36" transform="translate(-1.66 0.69) rotate(-0.22)"/><path class="cls-8" d="M180.69,414.13v.12A1.09,1.09,0,0,1,180.69,414.13Z"/><path class="cls-8" d="M180.79,414.25v0Z"/><path class="cls-8" d="M184.62,429.68c-3.78-8.65-3.84-14.55-3.83-15.43h-.1c0,.88,0,6.78-3.71,15.46Z"/><polygon class="cls-8" points="184.59 442.5 177.14 442.52 175.64 443.2 175.6 444.29 176.82 446.63 176.87 457.17 185.4 457.14 185.36 446.68 186.27 444 186.27 442.91 184.59 442.5"/><polygon class="cls-8" points="184.59 442.5 177.14 442.52 175.64 443.2 175.6 444.29 176.82 446.63 185.36 446.57 186.27 444 186.27 442.91 184.59 442.5"/><rect class="cls-8" x="176.42" y="431.21" width="8.92" height="3.01" transform="translate(-1.65 0.69) rotate(-0.22)"/><polygon class="cls-8" points="176.43 434.23 177.35 437.08 184.43 437.05 185.34 434.2 176.43 434.23"/><rect id="SVGCleanerId_0" data-name="SVGCleanerId 0" class="cls-8" x="171.48" y="395.33" width="8.53" height="15.84" transform="translate(-1.54 0.67) rotate(-0.22)"/><path id="SVGCleanerId_1" data-name="SVGCleanerId 1" class="cls-8" d="M175.57,377.14v.14A.79.79,0,0,0,175.57,377.14Z"/><path id="SVGCleanerId_2" data-name="SVGCleanerId 2" class="cls-8" d="M175.69,377.28v0Z"/><path id="SVGCleanerId_3" data-name="SVGCleanerId 3" class="cls-8" d="M180.23,395.57c-4.48-10.25-4.56-17.24-4.54-18.29h-.11c0,1.05,0,8-4.4,18.33Z"/><polygon class="cls-8" points="180.2 410.75 171.37 410.78 169.59 411.58 169.54 412.87 170.99 415.64 171.04 428.14 181.16 428.1 181.11 415.7 182.19 412.53 182.18 411.24 180.2 410.75"/><polygon class="cls-8" points="180.2 410.75 171.37 410.78 169.59 411.58 169.54 412.87 170.99 415.64 181.11 415.57 182.19 412.53 182.18 411.24 180.2 410.75"/><rect id="SVGCleanerId_4" data-name="SVGCleanerId 4" class="cls-8" x="170.51" y="397.37" width="10.56" height="3.57" transform="translate(-1.52 0.67) rotate(-0.22)"/><polygon class="cls-8" points="170.52 400.96 171.62 404.33 180.01 404.3 181.08 400.92 170.52 400.96"/><rect id="SVGCleanerId_0-2" data-name="SVGCleanerId 0" class="cls-8" x="171.48" y="395.33" width="8.53" height="15.84" transform="translate(-1.54 0.67) rotate(-0.22)"/><path id="SVGCleanerId_1-2" data-name="SVGCleanerId 1" class="cls-8" d="M175.57,377.14v.14A.79.79,0,0,0,175.57,377.14Z"/><path id="SVGCleanerId_2-2" data-name="SVGCleanerId 2" class="cls-8" d="M175.69,377.28v0Z"/><path id="SVGCleanerId_3-2" data-name="SVGCleanerId 3" class="cls-8" d="M180.23,395.57c-4.48-10.25-4.56-17.24-4.54-18.29h-.11c0,1.05,0,8-4.4,18.33Z"/><polygon class="cls-8" points="180.2 410.75 171.37 410.78 169.59 411.58 169.54 412.87 170.99 415.64 171.04 428.14 181.16 428.1 181.11 415.7 182.19 412.53 182.18 411.24 180.2 410.75"/><polygon class="cls-8" points="180.2 410.75 171.37 410.78 169.59 411.58 169.54 412.87 170.99 415.64 181.11 415.57 182.19 412.53 182.18 411.24 180.2 410.75"/><rect id="SVGCleanerId_4-2" data-name="SVGCleanerId 4" class="cls-8" x="170.51" y="397.37" width="10.56" height="3.57" transform="translate(-1.52 0.67) rotate(-0.22)"/><polygon class="cls-8" points="170.52 400.96 171.62 404.33 180.01 404.3 181.08 400.92 170.52 400.96"/><rect class="cls-8" x="146.74" y="411.52" width="6.18" height="11.48" transform="translate(-1.59 0.57) rotate(-0.22)"/><path class="cls-8" d="M153.09,411.69c-3.24-7.43-3.3-12.49-3.29-13.25h-.08c0,.76,0,5.82-3.19,13.28Z"/><polygon class="cls-8" points="153.07 422.7 146.67 422.72 145.38 423.3 145.34 424.24 146.39 426.25 146.52 459.17 153.85 459.15 153.73 426.29 154.51 423.99 154.51 423.05 153.07 422.7"/><polygon class="cls-8" points="153.07 422.7 146.67 422.72 145.38 423.3 145.34 424.24 146.39 426.25 153.73 426.19 154.51 423.99 154.51 423.05 153.07 422.7"/><rect class="cls-8" x="146.05" y="413" width="7.66" height="2.59" transform="translate(-1.58 0.58) rotate(-0.22)"/><polygon class="cls-8" points="146.05 415.6 146.85 418.04 152.93 418.02 153.71 415.57 146.05 415.6"/><rect class="cls-8" x="139.69" y="429.67" width="4.58" height="8.5" transform="translate(-1.66 0.55) rotate(-0.22)"/><path class="cls-8" d="M144.39,429.8A25.16,25.16,0,0,1,142,420h-.06a25.4,25.4,0,0,1-2.37,9.83Z"/><polygon class="cls-8" points="144.37 437.95 139.64 437.96 138.68 438.39 138.66 439.09 139.44 440.57 139.53 464.95 144.96 464.93 144.86 440.61 145.44 438.9 145.44 438.21 144.37 437.95"/><polygon class="cls-8" points="144.37 437.95 139.64 437.96 138.68 438.39 138.66 439.09 139.44 440.57 144.86 440.54 145.44 438.9 145.44 438.21 144.37 437.95"/><rect class="cls-8" x="139.18" y="430.77" width="5.67" height="1.92" transform="translate(-1.65 0.55) rotate(-0.22)"/><polygon class="cls-8" points="139.18 432.69 139.77 434.5 144.27 434.49 144.85 432.67 139.18 432.69"/><rect class="cls-8" x="153.41" y="435.05" width="26.53" height="23.4" transform="translate(-1.7 0.64) rotate(-0.22)"/><path class="cls-8" d="M160,439.8a.42.42,0,0,0-.41.43v1.92a.42.42,0,1,0,.84,0v-1.91A.43.43,0,0,0,160,439.8Z"/><path class="cls-8" d="M162.45,439.79a.42.42,0,0,0-.42.43v1.92a.43.43,0,0,0,.43.43.42.42,0,0,0,.41-.44v-1.91A.42.42,0,0,0,162.45,439.79Z"/><path class="cls-8" d="M161.21,439.81a.42.42,0,0,0-.41.44v1.91a.42.42,0,1,0,.84,0v-1.92A.43.43,0,0,0,161.21,439.81Z"/><path class="cls-8" d="M170.54,439.76a.43.43,0,0,0-.42.43v1.92a.42.42,0,1,0,.84,0v-1.91A.42.42,0,0,0,170.54,439.76Z"/><path class="cls-8" d="M173,439.75a.43.43,0,0,0-.42.43v1.92a.42.42,0,0,0,.42.43.43.43,0,0,0,.42-.44v-1.91A.42.42,0,0,0,173,439.75Z"/><path class="cls-8" d="M171.76,439.77a.43.43,0,0,0-.42.44v1.91a.42.42,0,0,0,.42.43.43.43,0,0,0,.42-.43V440.2A.43.43,0,0,0,171.76,439.77Z"/><path class="cls-8" d="M165.88,439.78a.42.42,0,0,0-.42.43v1.91a.42.42,0,1,0,.84,0v-1.91A.42.42,0,0,0,165.88,439.78Z"/><path class="cls-8" d="M167.1,439.79a.43.43,0,0,0-.42.43v1.92a.42.42,0,0,0,.42.43.43.43,0,0,0,.42-.44v-1.91A.42.42,0,0,0,167.1,439.79Z"/><path class="cls-8" d="M160,446a.42.42,0,0,0-.42.43v1.92a.41.41,0,0,0,.42.42.42.42,0,0,0,.42-.43v-1.91A.42.42,0,0,0,160,446Z"/><path class="cls-8" d="M162.47,445.94a.42.42,0,0,0-.42.43v1.92a.43.43,0,0,0,.42.43.44.44,0,0,0,.42-.44v-1.91A.42.42,0,0,0,162.47,445.94Z"/><path class="cls-8" d="M161.24,446a.42.42,0,0,0-.42.43v1.92a.42.42,0,0,0,.42.43.43.43,0,0,0,.42-.44v-1.91A.42.42,0,0,0,161.24,446Z"/><path class="cls-8" d="M170.56,445.91a.42.42,0,0,0-.42.43v1.92a.42.42,0,0,0,.42.42.42.42,0,0,0,.42-.43v-1.91A.42.42,0,0,0,170.56,445.91Z"/><path class="cls-8" d="M173,445.9a.42.42,0,0,0-.42.43v1.92a.42.42,0,1,0,.84,0v-1.91A.43.43,0,0,0,173,445.9Z"/><path class="cls-8" d="M171.78,445.92a.43.43,0,0,0-.42.43v1.92a.42.42,0,0,0,.42.43.43.43,0,0,0,.42-.44v-1.91A.42.42,0,0,0,171.78,445.92Z"/><path class="cls-8" d="M165.9,445.93a.42.42,0,0,0-.42.43v1.91a.42.42,0,1,0,.84,0v-1.91A.42.42,0,0,0,165.9,445.93Z"/><path class="cls-8" d="M167.12,445.94a.42.42,0,0,0-.42.43v1.91a.42.42,0,1,0,.84,0v-1.91A.42.42,0,0,0,167.12,445.94Z"/><rect class="cls-8" x="174.89" y="427.65" width="5.02" height="7.47" transform="translate(-1.65 0.68) rotate(-0.22)"/><rect class="cls-8" x="174.87" y="427.26" width="5.02" height="0.4" transform="translate(-1.63 0.68) rotate(-0.22)"/><rect class="cls-8" x="179.45" y="426.39" width="0.4" height="1.22" transform="matrix(1, 0, 0, 1, -1.63, 0.69)"/><rect class="cls-8" x="178.67" y="426.39" width="0.56" height="1.22" transform="translate(-1.63 0.69) rotate(-0.22)"/><rect class="cls-8" x="177.3" y="426.4" width="0.94" height="1.22" transform="translate(-1.63 0.68) rotate(-0.22)"/><rect class="cls-8" x="175.83" y="426.4" width="0.94" height="1.22" transform="translate(-1.63 0.68) rotate(-0.22)"/><rect class="cls-8" x="153.35" y="427.73" width="5.02" height="7.47" transform="translate(-1.65 0.6) rotate(-0.22)"/><rect class="cls-8" x="153.34" y="427.34" width="5.02" height="0.4" transform="translate(-1.63 0.6) rotate(-0.22)"/><rect class="cls-8" x="153.38" y="426.49" width="0.4" height="1.22" transform="translate(-1.63 0.59) rotate(-0.22)"/><rect class="cls-8" x="153.99" y="426.49" width="0.56" height="1.22" transform="translate(-1.63 0.59) rotate(-0.22)"/><rect class="cls-8" x="154.98" y="426.48" width="0.94" height="1.22" transform="translate(-1.63 0.6) rotate(-0.22)"/><rect class="cls-8" x="156.46" y="426.48" width="0.94" height="1.22" transform="translate(-1.63 0.6) rotate(-0.22)"/><rect class="cls-8" x="159.59" y="423.89" width="13.78" height="11.21" transform="translate(-1.64 0.64) rotate(-0.22)"/><polygon class="cls-8" points="166.55 409.9 157.09 423.92 176.13 423.85 166.55 409.9"/><polygon class="cls-8" points="157.09 423.83 157.85 426.7 157.88 435.13 159.86 435.12 159.82 423.82 157.09 423.83"/><polygon class="cls-8" points="173.35 423.77 173.39 435.07 175.38 435.06 175.34 426.63 176.08 423.76 173.35 423.77"/><rect class="cls-8" x="187.91" y="407.82" width="11.9" height="10.84" transform="translate(-1.58 0.74) rotate(-0.22)"/><path class="cls-8" d="M186.34,401.4s.16,7.38,1.55,7.37l11.9,0c1.52,0,1.49-7.37,1.49-7.37Z"/><path class="cls-8" d="M193.7,393.38s-7.22,8.16-8.54,8.16l17.37-.06C201,401.48,193.7,393.38,193.7,393.38Z"/><polygon class="cls-8" points="186.07 417.57 184.29 418.87 184.31 424.02 186.42 429.57 188.2 428.27 186.07 417.57"/><rect class="cls-8" x="185.85" y="427.95" width="16.36" height="23.21" transform="translate(-1.68 0.74) rotate(-0.22)"/><rect class="cls-8" x="185.85" y="427.98" width="2.28" height="23.21" transform="translate(-1.68 0.72) rotate(-0.22)"/><path class="cls-8" d="M203.54,460l-.81-10.28a.13.13,0,0,0-.14-.13l-16.37.06a.14.14,0,0,0-.14.14l0,10.32a.14.14,0,0,0,.14.14l17.14-.07h0a.15.15,0,0,0,.15-.14A.06.06,0,0,0,203.54,460Z"/><polygon class="cls-8" points="186.07 417.57 186.09 422.73 188.2 428.27 202.13 428.22 204.19 422.66 204.17 417.5 186.07 417.57"/><polygon class="cls-8" points="185.8 416.71 184.29 417.85 184.29 418.88 187.32 416.7 185.8 416.71"/><rect class="cls-8" x="186.05" y="416.67" width="18.12" height="0.87" transform="translate(-1.59 0.75) rotate(-0.22)"/><polygon class="cls-8" points="185.7 450.17 184.71 449.24 184.7 447.86 183.12 447.86 183.11 445.81 181.26 445.82 181.25 443.84 179.46 443.84 179.46 441.99 177.87 442 177.86 439.95 175.91 439.96 175.92 442 174.33 442.01 174.34 443.86 172.55 443.87 172.56 445.85 170.71 445.86 170.72 447.91 169.13 447.91 169.14 449.3 168.15 450.23 162.2 450.25 162.23 458.39 191.68 458.27 191.65 450.14 185.7 450.17"/><rect class="cls-8" x="164.01" y="452.71" width="25.78" height="8.23" transform="translate(-1.74 0.68) rotate(-0.22)"/><rect class="cls-8" x="143.39" y="458.36" width="62.03" height="4.76" transform="translate(-1.76 0.67) rotate(-0.22)"/><rect class="cls-8" x="189.85" y="460.87" width="16.07" height="20.73" transform="translate(-1.8 0.76) rotate(-0.22)"/><rect class="cls-8" x="190.91" y="461.9" width="13.95" height="18.65" transform="translate(-1.8 0.76) rotate(-0.22)"/><path class="cls-8" d="M193.49,465.26c-.38,0-.68.21-.68.47v2.11c0,.26.31.47.68.47s.68-.22.68-.48v-2.1C194.17,465.47,193.86,465.25,193.49,465.26Z"/><path class="cls-8" d="M195,465.27c-.37,0-.68.22-.68.48v2.1c0,.26.31.47.68.47s.68-.21.68-.48v-2.1C195.69,465.48,195.39,465.27,195,465.27Z"/><path class="cls-8" d="M195,465a1,1,0,0,0-.75.31.94.94,0,0,0-.77-.32.82.82,0,0,0-.91.7v2.11a.82.82,0,0,0,.91.7,1,1,0,0,0,.75-.31,1,1,0,0,0,.77.32.82.82,0,0,0,.91-.7v-2.11C195.92,465.34,195.52,465,195,465ZM194,467.83c0,.11-.2.25-.45.25s-.45-.13-.45-.24v-2.11c0-.11.2-.24.45-.24s.45.13.45.24Zm1.52,0c0,.11-.19.24-.45.24s-.45-.13-.45-.24v-2.1c0-.12.19-.25.44-.25s.45.13.45.24Z"/><path class="cls-8" d="M196.73,465.18a3.18,3.18,0,0,0-2.53-1.24,2.55,2.55,0,0,0-2.3,1.28.23.23,0,0,0,.1.31.19.19,0,0,0,.1,0,.23.23,0,0,0,.21-.13,2.13,2.13,0,0,1,1.89-1,2.75,2.75,0,0,1,2.15,1,.23.23,0,0,0,.38-.26Z"/><path class="cls-8" d="M200.47,465.23c-.38,0-.68.21-.68.48v2.1c0,.26.31.47.68.47s.68-.21.68-.48v-2.1C201.15,465.44,200.84,465.23,200.47,465.23Z"/><path class="cls-8" d="M202,465.24c-.37,0-.68.22-.68.48v2.1c0,.27.31.48.68.48s.68-.22.68-.48v-2.1C202.67,465.45,202.37,465.24,202,465.24Z"/><path class="cls-8" d="M202,465a1.07,1.07,0,0,1-1.52,0,.82.82,0,0,0-.91.71v2.1a.81.81,0,0,0,.91.7,1,1,0,0,0,.75-.3,1,1,0,0,0,.77.32.83.83,0,0,0,.91-.71v-2.1A.82.82,0,0,0,202,465Zm-1.07,2.8c0,.11-.19.24-.44.24s-.45-.13-.45-.24v-2.1c0-.12.2-.25.45-.25s.45.13.45.24Zm1.53,0c0,.11-.19.24-.45.24s-.45-.12-.45-.24v-2.1c0-.12.19-.24.44-.25s.45.13.45.25Z"/><path class="cls-8" d="M203.71,465.15a3.24,3.24,0,0,0-2.53-1.24,2.53,2.53,0,0,0-2.3,1.29.23.23,0,0,0,.1.31l.1,0a.23.23,0,0,0,.21-.13,2.13,2.13,0,0,1,1.89-1,2.75,2.75,0,0,1,2.15,1,.23.23,0,1,0,.38-.26Z"/><rect class="cls-8" x="148" y="461.03" width="16.07" height="20.73" transform="translate(-1.8 0.6) rotate(-0.22)"/><rect class="cls-8" x="149.06" y="462.06" width="13.95" height="18.65" transform="translate(-1.8 0.6) rotate(-0.22)"/><path class="cls-8" d="M151.64,465.42c-.37,0-.68.21-.67.47V468c0,.26.31.47.68.47s.68-.22.68-.48v-2.1C152.32,465.63,152,465.41,151.64,465.42Z"/><path class="cls-8" d="M153.16,465.43c-.37,0-.67.21-.67.48V468c0,.26.31.47.68.47s.68-.21.68-.48v-2.1C153.84,465.64,153.54,465.43,153.16,465.43Z"/><path class="cls-8" d="M153.16,465.2a1,1,0,0,0-.75.31.94.94,0,0,0-.77-.32.82.82,0,0,0-.91.7V468a.82.82,0,0,0,.91.7,1.09,1.09,0,0,1,1.53,0,.81.81,0,0,0,.9-.71v-2.1C154.07,465.5,153.67,465.2,153.16,465.2ZM152.1,468c0,.11-.2.25-.45.25s-.44-.13-.45-.25v-2.1c0-.11.19-.24.44-.24s.45.13.45.24Zm1.52,0c0,.11-.19.24-.45.24s-.44-.13-.44-.24v-2.1c0-.12.19-.25.44-.25s.45.13.45.24Z"/><path class="cls-8" d="M154.88,465.33a3.21,3.21,0,0,0-2.53-1.23,2.55,2.55,0,0,0-2.3,1.28.24.24,0,0,0,.21.34.23.23,0,0,0,.2-.13,2.14,2.14,0,0,1,1.9-1,2.74,2.74,0,0,1,2.14,1,.24.24,0,0,0,.33.06A.25.25,0,0,0,154.88,465.33Z"/><path class="cls-8" d="M158.62,465.39c-.37,0-.68.21-.68.48V468c0,.26.31.47.68.47s.68-.21.68-.48v-2.1C159.3,465.6,159,465.39,158.62,465.39Z"/><path class="cls-8" d="M160.14,465.4c-.37,0-.68.22-.67.48V468c0,.27.31.48.68.47s.68-.21.68-.47v-2.11C160.82,465.61,160.52,465.4,160.14,465.4Z"/><path class="cls-8" d="M160.14,465.17a1,1,0,0,0-.75.31,1,1,0,0,0-.77-.32.82.82,0,0,0-.91.71V468a.81.81,0,0,0,.91.7,1,1,0,0,0,.75-.3,1,1,0,0,0,.77.32.83.83,0,0,0,.91-.71v-2.1A.82.82,0,0,0,160.14,465.17ZM159.08,468c0,.12-.2.25-.45.25s-.45-.13-.45-.24v-2.1c0-.12.19-.25.44-.25s.45.13.45.24Zm1.52,0c0,.11-.19.24-.45.24s-.44-.12-.45-.24v-2.1c0-.12.19-.24.44-.25s.45.13.45.25Z"/><path class="cls-8" d="M161.86,465.31a3.24,3.24,0,0,0-2.53-1.24,2.55,2.55,0,0,0-2.3,1.28.24.24,0,0,0,.1.32l.11,0a.23.23,0,0,0,.2-.13,2.13,2.13,0,0,1,1.89-1,2.75,2.75,0,0,1,2.15,1,.23.23,0,0,0,.38-.26Z"/><rect class="cls-8" x="164.06" y="460.95" width="25.78" height="20.73" transform="translate(-1.8 0.68) rotate(-0.22)"/><rect class="cls-8" x="165.3" y="466.14" width="1.79" height="3.47" transform="translate(-1.78 0.64) rotate(-0.22)"/><rect class="cls-8" x="165.71" y="466.91" width="0.99" height="1.93" transform="translate(-1.78 0.64) rotate(-0.22)"/><rect class="cls-8" x="165.34" y="474.55" width="1.79" height="3.47" transform="translate(-1.82 0.64) rotate(-0.22)"/><rect class="cls-8" x="165.74" y="475.33" width="0.99" height="1.93" transform="translate(-1.82 0.64) rotate(-0.22)"/><rect class="cls-8" x="151.51" y="474.6" width="1.79" height="3.47" transform="translate(-1.82 0.59) rotate(-0.22)"/><rect class="cls-8" x="151.9" y="475.38" width="0.99" height="1.93" transform="translate(-1.82 0.59) rotate(-0.22)"/><rect class="cls-8" x="158.53" y="474.58" width="1.78" height="3.47" transform="translate(-1.82 0.61) rotate(-0.22)"/><rect class="cls-8" x="158.93" y="475.35" width="0.99" height="1.93" transform="translate(-1.82 0.61) rotate(-0.22)"/><rect class="cls-8" x="186.86" y="466.06" width="1.79" height="3.47" transform="translate(-1.78 0.72) rotate(-0.22)"/><rect class="cls-8" x="187.26" y="466.82" width="0.99" height="1.93" transform="translate(-1.78 0.72) rotate(-0.22)"/><rect class="cls-8" x="186.9" y="474.47" width="1.79" height="3.47" transform="translate(-1.82 0.72) rotate(-0.22)"/><rect class="cls-8" x="187.29" y="475.24" width="0.99" height="1.93" transform="translate(-1.82 0.72) rotate(-0.22)"/><rect class="cls-8" x="200.33" y="474.42" width="1.79" height="3.47" transform="translate(-1.82 0.77) rotate(-0.22)"/><rect class="cls-8" x="200.72" y="475.19" width="0.99" height="1.93" transform="translate(-1.82 0.77) rotate(-0.22)"/><rect class="cls-8" x="193.54" y="474.44" width="1.78" height="3.47" transform="translate(-1.82 0.75) rotate(-0.22)"/><rect class="cls-8" x="193.93" y="475.22" width="0.99" height="1.93" transform="translate(-1.82 0.75) rotate(-0.22)"/><path class="cls-8" d="M186.86,463.66l0-5.14-19.8.08,0,5.13c0,1.29,2,2.45,2,2.45l0,5.35-1.23,1.5a1.68,1.68,0,0,0-.54,1.29l0,7.34,19.3-.08,0-7.34a1.7,1.7,0,0,0-.55-1.28l-1.24-1.49,0-5.35S186.87,465,186.86,463.66Z"/><path class="cls-8" d="M167,458.6l0,5.13c0,1.29,2,2.45,2,2.45l0,5.35-1.23,1.5a1.68,1.68,0,0,0-.54,1.29l0,7.33,9.61,0-.08-23.06-9.87,0Z"/><path class="cls-8" d="M174.34,460.82v4h1.09a1.83,1.83,0,0,1,1.58-.9,1.85,1.85,0,0,1,1.58.88h1.09v-4Z"/><path class="cls-8" d="M174.34,460.82v4h1.09a1.58,1.58,0,0,1,3.16,0h1.09v-4Z"/><path class="cls-8" d="M182.54,458.54l0,5.13c0,1.29,2,2.45,2,2.45h0s2-1.18,2-2.46l0-5.14Z"/><path class="cls-8" d="M182.76,458.54l0,5.13c0,1.29,2,2.45,2,2.45h0s2-1.18,2-2.46l0-5.14Z"/><path class="cls-8" d="M167.25,458.6l0,5.13c0,1.29,2,2.45,2,2.45h0s2-1.18,2-2.47l0-5.13Z"/><path class="cls-8" d="M167,458.6v5.13c0,1.29,2.05,2.45,2.05,2.45h0s2-1.18,2-2.46l0-5.14Z"/><rect class="cls-8" x="181.17" y="466.28" width="0.63" height="1.59" transform="translate(-1.78 0.7) rotate(-0.22)"/><rect class="cls-8" x="172.11" y="466.31" width="0.63" height="1.59" transform="translate(-1.78 0.66) rotate(-0.22)"/><rect class="cls-8" x="174.86" y="465.6" width="4.2" height="4.46" transform="translate(-1.78 0.68) rotate(-0.22)"/><rect class="cls-8" x="174.86" y="466.1" width="3.97" height="3.97" transform="translate(-1.79 0.68) rotate(-0.22)"/><path class="cls-8" d="M167,458.6V461l19.8-.08v-2.35Z"/><path class="cls-8" d="M177.09,472.1h-.16a3.85,3.85,0,0,0-3.84,3.87l0,5.71H181l0-5.73A3.85,3.85,0,0,0,177.09,472.1Z"/><polygon class="cls-8" points="176.85 444.21 171.4 452.73 182.37 452.69 176.85 444.21"/><path class="cls-8" d="M176.83,443.75a.58.58,0,0,0-.58.58v2.78a.58.58,0,1,0,1.16,0v-2.78A.58.58,0,0,0,176.83,443.75Z"/><path class="cls-8" d="M178.67,446a.58.58,0,0,0-.58.58v2.78a.57.57,0,0,0,.58.57.58.58,0,0,0,.58-.58v-2.78A.57.57,0,0,0,178.67,446Z"/><path class="cls-8" d="M180.12,448.18a.57.57,0,0,0-.57.58v2.78a.57.57,0,0,0,.58.57.58.58,0,0,0,.58-.58v-2.78A.59.59,0,0,0,180.12,448.18Z"/><path class="cls-8" d="M181.58,450.47a.58.58,0,0,0-.57.58v2.78a.57.57,0,0,0,.58.57.58.58,0,0,0,.58-.58V451A.57.57,0,0,0,181.58,450.47Z"/><path class="cls-8" d="M175.09,446a.58.58,0,0,0-.58.58v2.78a.59.59,0,0,0,.58.58.58.58,0,0,0,.58-.58V446.6A.58.58,0,0,0,175.09,446Z"/><path class="cls-8" d="M173.61,448.2a.58.58,0,0,0-.58.58l0,2.78a.58.58,0,0,0,.58.58.57.57,0,0,0,.57-.58v-2.78A.58.58,0,0,0,173.61,448.2Z"/><path class="cls-8" d="M172.22,450.5a.57.57,0,0,0-.57.58v2.78a.58.58,0,0,0,.58.58.57.57,0,0,0,.57-.58v-2.78A.58.58,0,0,0,172.22,450.5Z"/><path class="cls-8" d="M169.86,428,163,428c-.13,0-.23,0-.23.07v.27s.1.07.23.07l6.83,0c.13,0,.23,0,.23-.07v-.27S170,428,169.86,428Z"/><path class="cls-8" d="M164.58,431.78a.64.64,0,0,0-.63.64v2.8a.64.64,0,0,0,.64.63.64.64,0,0,0,.63-.64v-2.8A.64.64,0,0,0,164.58,431.78Z"/><path class="cls-8" d="M168.27,431.77a.63.63,0,0,0-.63.63v2.81a.63.63,0,1,0,1.26,0v-2.8A.63.63,0,0,0,168.27,431.77Z"/><path class="cls-8" d="M166.42,431.63a.63.63,0,0,0-.63.63v2.8a.63.63,0,0,0,1.26,0v-2.8A.63.63,0,0,0,166.42,431.63Z"/><path class="cls-8" d="M169.89,435.19l-6.82,0a.23.23,0,0,0-.23.24v.93a.23.23,0,0,0,.23.23l6.83,0a.23.23,0,0,0,.23-.23v-.93A.23.23,0,0,0,169.89,435.19Z"/><rect class="cls-8" x="207.25" y="456.56" width="0.69" height="2.78" transform="translate(-1.75 0.8) rotate(-0.22)"/><rect class="cls-8" x="207.29" y="466.18" width="0.69" height="2.78" transform="translate(-1.78 0.8) rotate(-0.22)"/><rect class="cls-8" x="207.32" y="476" width="0.69" height="2.78" transform="translate(-1.82 0.8) rotate(-0.22)"/><polygon class="cls-8" points="204.91 445.75 204.93 448.68 215.19 448.64 215.19 445.71 204.91 445.75"/><path class="cls-8" d="M213.33,446l-3.24-5.36a.14.14,0,0,0-.13-.08h0a.18.18,0,0,0-.13.08l-3.06,5.39a.19.19,0,0,0,0,.15.17.17,0,0,0,.13.07l6.3,0a.15.15,0,0,0,.13-.07A.16.16,0,0,0,213.33,446Z"/><rect class="cls-8" x="141.01" y="456.81" width="0.69" height="2.78" transform="translate(-1.75 0.54) rotate(-0.22)"/><rect class="cls-8" x="141.04" y="466.43" width="0.69" height="2.78" transform="translate(-1.78 0.54) rotate(-0.22)"/><rect class="cls-8" x="141.08" y="476.25" width="0.69" height="2.78" transform="translate(-1.82 0.54) rotate(-0.22)"/><polygon class="cls-8" points="138.66 446.01 138.69 448.93 148.95 448.89 148.95 445.97 138.66 446.01"/><path class="cls-8" d="M147.08,446.27l-3.23-5.36a.15.15,0,0,0-.13-.07h0a.16.16,0,0,0-.13.07l-3.06,5.39a.14.14,0,0,0,0,.15.17.17,0,0,0,.13.07l6.3,0a.16.16,0,0,0,.13-.08A.16.16,0,0,0,147.08,446.27Z"/><path class="cls-8" d="M215.19,448.64l-10.26,0,.45,1.83-.32,30.35,7.2,0c1-.74,2-1.51,3-2.31l-.51-28Z"/><path class="cls-8" d="M149,448.89l-10.26,0,.45,1.83-.31,29.57c.35.27.72.52,1.08.77l9.15,0-.55-30.34Z"/><polygon class="cls-8" points="157.11 475.56 151.76 486.94 163.2 486.9 157.11 475.56"/><polygon class="cls-8" points="157.19 473.81 153.22 482.27 161.71 482.23 157.19 473.81"/><polygon class="cls-8" points="157.23 471.41 154.02 478.24 160.88 478.21 157.23 471.41"/><circle class="cls-8" cx="743.21" cy="375.84" r="1.62"/><circle class="cls-8" cx="742.98" cy="470.42" r="1.62"/><circle class="cls-8" cx="790.25" cy="423.25" r="1.62"/><circle class="cls-8" cx="695.81" cy="423.02" r="1.62"/><circle class="cls-8" cx="776.59" cy="389.83" r="1.62"/><circle class="cls-8" cx="709.55" cy="456.53" r="1.62"/><circle class="cls-8" cx="776.34" cy="456.61" r="1.62"/><circle class="cls-8" cx="709.71" cy="389.66" r="1.62"/><circle class="cls-8" cx="782.28" cy="396.75" r="1.62"/><circle class="cls-8" cx="703.85" cy="449.62" r="1.62"/><circle class="cls-8" cx="769.43" cy="462.28" r="1.62"/><circle class="cls-8" cx="716.63" cy="383.98" r="1.62"/><circle class="cls-8" cx="786.54" cy="404.61" r="1.62"/><circle class="cls-8" cx="699.57" cy="441.78" r="1.62"/><circle class="cls-8" cx="761.59" cy="466.55" r="1.62"/><circle class="cls-8" cx="724.47" cy="379.71" r="1.62"/><circle class="cls-8" cx="789.4" cy="413.88" r="1.62"/><circle class="cls-8" cx="696.68" cy="432.52" r="1.62"/><circle class="cls-8" cx="752.33" cy="469.43" r="1.62"/><circle class="cls-8" cx="733.72" cy="376.83" r="1.62"/><circle class="cls-8" cx="789.21" cy="433.28" r="1.62"/><circle class="cls-8" cx="696.82" cy="413.09" r="1.62"/><circle class="cls-8" cx="732.95" cy="469.25" r="1.62"/><circle class="cls-8" cx="753.12" cy="376.99" r="1.62"/><circle class="cls-8" cx="786.48" cy="441.8" r="1.62"/><circle class="cls-8" cx="699.54" cy="404.57" r="1.62"/><circle class="cls-8" cx="724.45" cy="466.54" r="1.62"/><circle class="cls-8" cx="761.62" cy="379.71" r="1.62"/><circle class="cls-8" cx="781.75" cy="450.27" r="1.62"/><circle class="cls-8" cx="704.24" cy="396.08" r="1.62"/><circle class="cls-8" cx="715.98" cy="461.83" r="1.62"/><circle class="cls-8" cx="770.09" cy="384.42" r="1.62"/><path class="cls-8" d="M771.7,394.54a40.52,40.52,0,1,0,11.8,28.69A40.32,40.32,0,0,0,771.7,394.54Zm-28.83,68.6A40,40,0,1,1,783,423.23,40.05,40.05,0,0,1,742.87,463.14Z"/><path class="cls-8" d="M773.86,392.39a43.59,43.59,0,1,0,12.69,30.85A43.24,43.24,0,0,0,773.86,392.39Zm-31,73.94a43.2,43.2,0,1,1,43.3-43.09A43.25,43.25,0,0,1,742.86,466.33Z"/><path class="cls-8" d="M743.87,377.4a.2.2,0,0,0-.25.09l-2.38,5-3-4.88a.21.21,0,0,0-.21-.08.19.19,0,0,0-.15.16l-.72,5-3.32-4.28a.2.2,0,0,0-.2-.07.19.19,0,0,0-.14.17l-.6,5.21L729,379.7a.2.2,0,0,0-.22-.05.21.21,0,0,0-.12.19l.23,4.91-3.47-3.84a.22.22,0,0,0-.23-.05.2.2,0,0,0-.11.2l.6,5.21-4.09-3.38a.21.21,0,0,0-.23,0,.21.21,0,0,0-.09.21l1.17,5.41a.19.19,0,0,0,.19.15h0a.21.21,0,0,0,.15-.23l-1.05-4.86,4,3.33a.18.18,0,0,0,.21,0,.19.19,0,0,0,.1-.19l-.58-5.09,3.43,3.79a.2.2,0,0,0,.22,0,.2.2,0,0,0,.12-.19l-.23-4.92,3.74,4a.21.21,0,0,0,.2.05.22.22,0,0,0,.14-.16l.59-5.15,3.3,4.27a.2.2,0,0,0,.21.06.19.19,0,0,0,.14-.16l.71-5,3,4.73a.18.18,0,0,0,.18.09.17.17,0,0,0,.16-.11l2.53-5.32A.21.21,0,0,0,743.87,377.4Z"/><path class="cls-8" d="M722.74,388.41l-4.93-3.28a.2.2,0,0,0-.22,0,.21.21,0,0,0-.07.21l1.41,5-5-2.25a.18.18,0,0,0-.21,0,.19.19,0,0,0,0,.21l1.9,4.89-5.27-1.81a.19.19,0,0,0-.21.06.18.18,0,0,0,0,.22l2.49,4.24-4.73-1.74a.22.22,0,0,0-.22.06.2.2,0,0,0,0,.23l2.84,4.3-5.21-1.09a.2.2,0,0,0-.21.09.21.21,0,0,0,0,.23l3.55,4.24a.23.23,0,0,0,.15.07.21.21,0,0,0,.13-.05.19.19,0,0,0,0-.27l-3.19-3.81,5.12,1.06a.18.18,0,0,0,.2-.08.17.17,0,0,0,0-.21l-2.77-4.2,4.68,1.72a.19.19,0,0,0,.22-.06.2.2,0,0,0,0-.22L710.7,392l5.17,1.77a.17.17,0,0,0,.2-.05.18.18,0,0,0,0-.2l-1.88-4.83,4.92,2.23a.18.18,0,0,0,.2,0,.2.2,0,0,0,.07-.2L718,385.75l4.49,3a.19.19,0,0,0,.27-.05A.2.2,0,0,0,722.74,388.41Z"/><path class="cls-8" d="M708.77,402l-6.11-.17a.21.21,0,0,0-.19.12.19.19,0,0,0,.06.22l3.8,3.39-5.4.39a.19.19,0,0,0-.17.14.18.18,0,0,0,.06.2l4,3.39-5.49.93a.2.2,0,0,0-.16.16.2.2,0,0,0,.09.2l4.22,2.53-5.12.77a.19.19,0,0,0-.17.16.2.2,0,0,0,.11.2L703,417l-5.33,1.52a.21.21,0,0,0-.15.18.2.2,0,0,0,.13.19l5.23,2,.07,0a.2.2,0,0,0,.18-.13.19.19,0,0,0-.11-.25l-4.68-1.76,5.24-1.5a.18.18,0,0,0,.14-.17.19.19,0,0,0-.1-.19L699,414.58l5.05-.76a.19.19,0,0,0,.17-.15.21.21,0,0,0-.09-.21l-4.23-2.53,5.38-.92a.19.19,0,0,0,.16-.14.2.2,0,0,0-.07-.2l-4-3.34,5.39-.39a.22.22,0,0,0,.17-.14.19.19,0,0,0-.06-.2l-3.75-3.35,5.57.16h0a.2.2,0,0,0,.2-.19A.21.21,0,0,0,708.77,402Z"/><path class="cls-8" d="M706.45,439.66l-5,.53,3.74-3.65a.21.21,0,0,0,0-.22.2.2,0,0,0-.18-.12l-5.13.05,4.14-3a.22.22,0,0,0,.07-.22.19.19,0,0,0-.18-.14l-4.92-.29,4.35-3.3a.19.19,0,0,0,.07-.2.19.19,0,0,0-.14-.15l-5.06-1.13L702.9,425a.18.18,0,0,0,.09-.19.19.19,0,0,0-.15-.16L698,423.39l5-2.43a.19.19,0,0,0,.09-.26.19.19,0,0,0-.26-.09l-5.49,2.66a.2.2,0,0,0-.11.2.21.21,0,0,0,.14.17l4.94,1.24-4.6,2.85a.2.2,0,0,0-.09.2.19.19,0,0,0,.15.16l5.11,1.14-4.43,3.37a.19.19,0,0,0-.07.21.2.2,0,0,0,.18.14l4.9.29-4.18,3.05a.19.19,0,0,0-.07.22.18.18,0,0,0,.18.13l5.25,0-3.8,3.71a.2.2,0,0,0,0,.22.19.19,0,0,0,.18.11h0l5.5-.59a.19.19,0,0,0,.17-.21A.2.2,0,0,0,706.45,439.66Z"/><path class="cls-8" d="M718.8,455a.21.21,0,0,0-.28-.05l-4.12,2.77,1.6-5a.19.19,0,0,0-.06-.21.2.2,0,0,0-.21,0l-4.47,2.32,2.21-4.48a.2.2,0,0,0-.26-.26l-4.49,2,2.31-4.95a.2.2,0,0,0,0-.21.19.19,0,0,0-.2-.06l-5,1.35,2.74-4.65a.22.22,0,0,0,0-.21.2.2,0,0,0-.19-.08l-5,.86,3.43-4.15a.2.2,0,0,0,0-.28.2.2,0,0,0-.28,0l-3.77,4.56a.2.2,0,0,0,0,.22.18.18,0,0,0,.2.09l5.15-.87-2.77,4.7a.22.22,0,0,0,0,.22.21.21,0,0,0,.21.07l5.06-1.38-2.35,5.05a.18.18,0,0,0,0,.22.17.17,0,0,0,.21,0l4.48-2-2.23,4.52a.21.21,0,0,0,0,.23.2.2,0,0,0,.23,0l4.57-2.37-1.64,5.06a.22.22,0,0,0,.07.22.28.28,0,0,0,.12,0,.17.17,0,0,0,.11,0l4.59-3.08A.2.2,0,0,0,718.8,455Z"/><path class="cls-8" d="M736.56,462.73a.19.19,0,0,0-.26.09l-2.24,4.46-.94-5.37a.22.22,0,0,0-.16-.16.2.2,0,0,0-.2.09l-2.8,4.29-.22-5.11a.21.21,0,0,0-.13-.18.22.22,0,0,0-.22.07l-3,3.94-.35-5.45a.18.18,0,0,0-.12-.17.2.2,0,0,0-.21,0L722,462.86l.18-5.4a.19.19,0,0,0-.11-.18.22.22,0,0,0-.22,0l-3.71,3.37.74-5.52a.19.19,0,1,0-.38-.05l-.82,6.05a.2.2,0,0,0,.1.2.18.18,0,0,0,.22,0l3.77-3.42-.17,5.41a.19.19,0,0,0,.11.18.2.2,0,0,0,.22,0l3.78-3.63.35,5.56a.21.21,0,0,0,.14.17.18.18,0,0,0,.21-.07l3-3.92.22,5.17a.2.2,0,0,0,.15.18.18.18,0,0,0,.21-.08l2.86-4.38.95,5.46a.2.2,0,0,0,.17.16h0a.2.2,0,0,0,.18-.11l2.5-5A.2.2,0,0,0,736.56,462.73Z"/><path class="cls-8" d="M756.08,461.18a.18.18,0,0,0-.19-.19h0a.2.2,0,0,0-.2.19l0,5-3.26-4.09a.19.19,0,0,0-.21-.06.19.19,0,0,0-.14.16l-.47,5.1-2.58-4.41a.18.18,0,0,0-.2-.09.19.19,0,0,0-.16.16l-.79,4.86-2.84-4.66a.21.21,0,0,0-.19-.09.21.21,0,0,0-.17.13l-1.63,4.92-2.36-4.86a.21.21,0,0,0-.19-.1.19.19,0,0,0-.17.12L738.65,468l-1.92-5.23a.21.21,0,0,0-.25-.12.21.21,0,0,0-.12.25l2.11,5.74a.2.2,0,0,0,.18.13h0a.18.18,0,0,0,.18-.13l1.74-4.79,2.37,4.87a.18.18,0,0,0,.17.11h0a.21.21,0,0,0,.17-.13l1.65-5,2.91,4.75a.18.18,0,0,0,.2.09.2.2,0,0,0,.16-.16l.78-4.85,2.61,4.47a.21.21,0,0,0,.21.1.2.2,0,0,0,.16-.18l.48-5.22,3.31,4.15a.17.17,0,0,0,.21.06.18.18,0,0,0,.13-.18Z"/><path class="cls-8" d="M775.08,455.4l-2.61-4.88a.21.21,0,0,0-.27-.08.2.2,0,0,0-.07.27l2.34,4.38-4.8-2.1a.2.2,0,0,0-.21,0,.22.22,0,0,0-.05.22l1.86,4.67L767,455.28a.2.2,0,0,0-.23,0,.19.19,0,0,0-.06.21l1.57,4.68-4.69-2.8a.2.2,0,0,0-.21,0,.2.2,0,0,0-.08.19l.84,5.11-4.35-3.19a.2.2,0,0,0-.21,0,.21.21,0,0,0-.1.18l.35,5.1-3.79-3.84a.2.2,0,0,0-.27,0,.19.19,0,0,0,0,.28l4.15,4.21a.18.18,0,0,0,.14.06l.08,0a.19.19,0,0,0,.11-.19l-.35-5.21,4.4,3.23a.2.2,0,0,0,.31-.19l-.86-5.17,4.79,2.85a.2.2,0,0,0,.22,0,.19.19,0,0,0,.06-.21l-1.57-4.66,4.27,2.67a.19.19,0,0,0,.29-.23l-1.9-4.79,4.87,2.13a.2.2,0,0,0,.23,0A.23.23,0,0,0,775.08,455.4Z"/><path class="cls-8" d="M786.66,436.49l-4.71-3a.2.2,0,1,0-.21.33L786,436.5l-5.44.39a.22.22,0,0,0-.18.14.21.21,0,0,0,.07.21l4,3.21-5.11-.29a.18.18,0,0,0-.19.12.19.19,0,0,0,0,.21l3.62,3.35-5.46-.21a.19.19,0,0,0-.18.11.2.2,0,0,0,0,.21l3.19,4.08-5.35-.72a.19.19,0,0,0-.19.1.18.18,0,0,0,0,.21l3,4-5.42-1.3a.2.2,0,0,0-.09.38l5.94,1.43h0a.19.19,0,0,0,.16-.31l-3-4.1,5.36.72a.19.19,0,0,0,.18-.31L777.72,444l5.56.21a.18.18,0,0,0,.19-.12.21.21,0,0,0-.05-.22l-3.61-3.33,5.17.3a.22.22,0,0,0,.2-.13.2.2,0,0,0-.06-.22L781,437.24l5.53-.39a.2.2,0,0,0,.18-.15A.2.2,0,0,0,786.66,436.49Z"/><path class="cls-8" d="M788.62,422.57l-4.74-1.29,4.72-2.13a.18.18,0,0,0,.11-.2.2.2,0,0,0-.15-.17l-5.15-1,4.48-2.85a.2.2,0,0,0,.09-.21.2.2,0,0,0-.17-.15L782.3,414a.19.19,0,0,0,0,.38l5,.5-4.41,2.82a.2.2,0,0,0-.09.2.23.23,0,0,0,.15.15l5,1-4.67,2.1a.19.19,0,0,0-.11.19.19.19,0,0,0,.14.17l4.76,1.3-4.93,2.34a.19.19,0,0,0-.11.18.18.18,0,0,0,.11.17l4.72,2.15-5.08,1.83a.23.23,0,0,0-.13.18.2.2,0,0,0,.11.18l4.52,2.2-5.41,1.36a.19.19,0,0,0-.14.23.19.19,0,0,0,.19.15h0l5.92-1.49a.2.2,0,0,0,.15-.17.23.23,0,0,0-.11-.2l-4.58-2.23,5.09-1.84a.23.23,0,0,0,.13-.18.21.21,0,0,0-.12-.18l-4.77-2.17,5-2.39a.18.18,0,0,0,.11-.19A.18.18,0,0,0,788.62,422.57Z"/><path class="cls-8" d="M787,410.37a.22.22,0,0,0-.18-.14L781.6,410l3.67-4a.2.2,0,0,0,0-.22.2.2,0,0,0-.19-.11l-5.23.31,3.34-4.46a.2.2,0,0,0,0-.22.2.2,0,0,0-.21-.09l-4.79,1.08,3.1-4a.21.21,0,0,0,0-.23.21.21,0,0,0-.22-.08l-5,1.38,2.63-4.62a.2.2,0,0,0,0-.22.19.19,0,0,0-.22-.06l-5.13,2.08a.2.2,0,0,0-.11.25.2.2,0,0,0,.26.11l4.6-1.87-2.59,4.55a.2.2,0,0,0,.22.29l4.85-1.36-3.08,3.93a.21.21,0,0,0,0,.23.2.2,0,0,0,.21.08l4.81-1.07-3.27,4.37a.2.2,0,0,0,0,.21.19.19,0,0,0,.19.1l5.17-.3-3.63,4a.19.19,0,0,0,.13.32l5.11.2L782.05,414a.2.2,0,0,0,0,.27.19.19,0,0,0,.28,0l4.63-3.68A.2.2,0,0,0,787,410.37Z"/><path class="cls-8" d="M775.61,390.81a.21.21,0,0,0-.23,0L771,393.38l1.28-5.26a.21.21,0,0,0-.07-.21.22.22,0,0,0-.22,0l-4.45,2.78.8-5.52a.19.19,0,0,0-.1-.19.2.2,0,0,0-.22,0l-3.7,3.24.84-5.12a.19.19,0,0,0-.1-.2.2.2,0,0,0-.23,0l-3.7,3.7.19-5.54a.21.21,0,0,0-.13-.19.19.19,0,0,0-.22.06l-3.17,4-.44-5.26a.19.19,0,0,0-.36-.08l-2.57,4.23-1.2-5.2a.18.18,0,0,0-.16-.14.2.2,0,0,0-.2.09l-2.42,4.33-1.68-5.13a.21.21,0,0,0-.18-.13h0a.2.2,0,0,0-.19.13l-1.69,4.71-2.74-5a.19.19,0,0,0-.26-.07.19.19,0,0,0-.08.26l2.94,5.41a.19.19,0,0,0,.19.1.17.17,0,0,0,.16-.12l1.66-4.58,1.64,5a.2.2,0,0,0,.16.13.18.18,0,0,0,.19-.1l2.4-4.28,1.19,5.17a.19.19,0,0,0,.16.15.17.17,0,0,0,.19-.09l2.51-4.13.44,5.15a.18.18,0,0,0,.13.17.19.19,0,0,0,.21-.07l3.11-3.91-.18,5.45a.2.2,0,0,0,.12.19.19.19,0,0,0,.21,0l3.62-3.63-.83,5.05a.18.18,0,0,0,.09.2.21.21,0,0,0,.23,0l3.71-3.25-.78,5.41a.19.19,0,0,0,.29.19l4.4-2.74-1.28,5.24a.19.19,0,0,0,.07.2.2.2,0,0,0,.22,0l4.33-2.54-1.87,5.26a.19.19,0,0,0,.12.24l.07,0a.19.19,0,0,0,.18-.13l2-5.76A.2.2,0,0,0,775.61,390.81Z"/><path class="cls-8" d="M762.91,382a.21.21,0,0,0-.23,0l-3.94,3.57.37-5.24a.18.18,0,0,0-.12-.19.2.2,0,0,0-.22.05l-3.3,4v-4.92a.19.19,0,0,0-.13-.18.18.18,0,0,0-.21.06l-3.64,4.22-.83-5.18a.19.19,0,0,0-.14-.16.21.21,0,0,0-.21.08l-3.12,4.42-.94-5a.2.2,0,0,0-.16-.16.19.19,0,0,0-.2.1l-2.83,5-2.59-4.89a.2.2,0,0,0-.27-.08.18.18,0,0,0-.07.26l2.75,5.2a.2.2,0,0,0,.17.11.19.19,0,0,0,.17-.1L746,378.1l.93,4.94a.19.19,0,0,0,.15.15.19.19,0,0,0,.2-.07l3.11-4.41.82,5.11a.21.21,0,0,0,.14.16.2.2,0,0,0,.21-.06l3.56-4.14v4.93a.21.21,0,0,0,.13.19.21.21,0,0,0,.21-.06l3.26-3.94-.36,5.11a.23.23,0,0,0,.11.19.22.22,0,0,0,.22,0l3.88-3.51-.83,4.9a.19.19,0,0,0,.16.22h0a.18.18,0,0,0,.19-.16l.93-5.45A.21.21,0,0,0,762.91,382Z"/><path class="cls-8" d="M779.9,396.16a.2.2,0,0,0-.21-.08l-5.16,1.32,2.65-4.42a.21.21,0,0,0,0-.23.22.22,0,0,0-.23-.05l-4.64,1.94,2.3-4.34a.18.18,0,0,0,0-.22.2.2,0,0,0-.22-.05l-5.18,2,1.68-5a.19.19,0,0,0-.05-.21.2.2,0,0,0-.22,0l-4.86,2.47,1.18-5.08a.19.19,0,0,0-.3-.2l-4.78,3.49a.18.18,0,0,0,0,.27.2.2,0,0,0,.27,0l4.36-3.18-1.17,5a.21.21,0,0,0,.07.2.2.2,0,0,0,.21,0l4.81-2.45-1.66,4.91a.23.23,0,0,0,.05.21.23.23,0,0,0,.21,0l5.08-2-2.31,4.35a.18.18,0,0,0,0,.22.17.17,0,0,0,.22,0l4.6-1.92L774,397.6a.22.22,0,0,0,0,.22.21.21,0,0,0,.21.07l5.07-1.29-3,3.95a.19.19,0,0,0,0,.27.15.15,0,0,0,.11,0,.21.21,0,0,0,.16-.08l3.36-4.39A.21.21,0,0,0,779.9,396.16Z"/><path class="cls-8" d="M788.23,416.56l-5.39-1.29,4.55-2.58a.21.21,0,0,0,.1-.21.21.21,0,0,0-.17-.16l-5.16-.54,4.1-2.71a.18.18,0,0,0,.09-.2.2.2,0,0,0-.17-.15l-5.53-.7,3.86-3.55a.2.2,0,0,0-.13-.34L779,404l3.65-3.55a.24.24,0,0,0,0-.23.2.2,0,0,0-.19-.11l-6.1.44a.21.21,0,0,0-.18.21.2.2,0,0,0,.21.18l5.56-.4-3.6,3.5a.2.2,0,0,0,0,.21.23.23,0,0,0,.17.13l5.4.15L780.08,408a.23.23,0,0,0-.05.21.18.18,0,0,0,.16.13l5.42.68-4.12,2.72a.2.2,0,0,0-.08.2.2.2,0,0,0,.17.15l5.09.54-4.46,2.53a.17.17,0,0,0-.09.19.18.18,0,0,0,.14.16l5.31,1.27-4.6,2a.21.21,0,0,0-.1.26.21.21,0,0,0,.18.12l.08,0,5.13-2.19a.2.2,0,0,0,.12-.2A.18.18,0,0,0,788.23,416.56Z"/><path class="cls-8" d="M788.74,421.26l-5.61-2.43a.19.19,0,0,0-.25.11.18.18,0,0,0,.1.25l5.11,2.21-4.81,1.45a.19.19,0,0,0-.14.16.21.21,0,0,0,.1.19l4.72,2.64-5,1.35a.21.21,0,0,0-.14.15.21.21,0,0,0,.08.2l4.49,3.11-4.9.5a.2.2,0,0,0-.17.15.21.21,0,0,0,.08.21l4.26,2.83-5.12.18a.19.19,0,0,0-.17.12.2.2,0,0,0,0,.22l3.9,3.48-5-.3a.18.18,0,0,0-.2.18.19.19,0,0,0,.18.21l5.52.34h0a.2.2,0,0,0,.18-.12.2.2,0,0,0,0-.22l-4-3.54,5.24-.18a.23.23,0,0,0,.18-.15.2.2,0,0,0-.08-.21l-4.32-2.86L788,431a.21.21,0,0,0,.17-.14.19.19,0,0,0-.08-.21l-4.58-3.17,5.06-1.37a.19.19,0,0,0,.14-.17.19.19,0,0,0-.09-.19l-4.73-2.64,4.88-1.46a.22.22,0,0,0,.14-.18A.21.21,0,0,0,788.74,421.26Z"/><path class="cls-8" d="M784.34,442.53l-4-4.38a.19.19,0,0,0-.28,0,.19.19,0,0,0,0,.27l3.62,4-5.08-.64a.23.23,0,0,0-.19.09.2.2,0,0,0,0,.21l2.94,4.53-5-1.14a.22.22,0,0,0-.2.07.2.2,0,0,0,0,.21l2.52,4.85-4.57-1.84a.19.19,0,0,0-.24.27l2.39,4.38-4.56-2.12a.2.2,0,0,0-.26.25l1.82,4.9L769,453.85a.18.18,0,0,0-.26.06.2.2,0,0,0,.06.27l4.73,2.88a.17.17,0,0,0,.1,0,.21.21,0,0,0,.18-.27l-1.85-5,4.67,2.16a.19.19,0,0,0,.22,0,.2.2,0,0,0,0-.23l-2.42-4.42,4.56,1.84a.19.19,0,0,0,.21,0,.18.18,0,0,0,0-.22l-2.57-4.94,5.12,1.14a.19.19,0,0,0,.2-.29l-3-4.58,5.18.65a.18.18,0,0,0,.19-.1A.21.21,0,0,0,784.34,442.53Z"/><path class="cls-8" d="M769,454a.19.19,0,0,0-.22-.16.2.2,0,0,0-.16.23l1,5.48-3.86-3.21a.25.25,0,0,0-.22,0,.19.19,0,0,0-.1.19l.41,5.38-3.89-3.41a.19.19,0,0,0-.21,0,.2.2,0,0,0-.12.18l-.1,5.46-3.14-3.8a.19.19,0,0,0-.34.12v5.11l-3-4.16a.2.2,0,0,0-.21-.08.21.21,0,0,0-.14.17l-.7,5.41-2.44-4.37a.2.2,0,0,0-.27-.07.19.19,0,0,0-.07.26l2.72,4.88a.21.21,0,0,0,.17.1h0a.21.21,0,0,0,.16-.17L755,462l3,4.25a.21.21,0,0,0,.22.08.21.21,0,0,0,.13-.19v-5.18l3.12,3.79a.19.19,0,0,0,.22.06.2.2,0,0,0,.13-.18L762,459l3.94,3.46a.22.22,0,0,0,.22,0,.23.23,0,0,0,.11-.19l-.42-5.4,3.92,3.25a.2.2,0,0,0,.22,0,.2.2,0,0,0,.1-.2Z"/><path class="cls-8" d="M751.36,462.29a.19.19,0,0,0-.25.13l-1.68,5.31-1.92-4.64a.19.19,0,0,0-.36,0L745,468l-1.85-4.84a.2.2,0,0,0-.17-.13.21.21,0,0,0-.18.11L740.16,468l-1-4.83A.18.18,0,0,0,739,463a.18.18,0,0,0-.2.1l-2.39,4.52-.69-5.07a.21.21,0,0,0-.14-.17.24.24,0,0,0-.21.08l-3.08,4.23-.19-5a.19.19,0,0,0-.2-.18.19.19,0,0,0-.19.2l.22,5.53a.21.21,0,0,0,.13.18.21.21,0,0,0,.22-.08l3.12-4.29.71,5.2a.19.19,0,0,0,.16.16.19.19,0,0,0,.21-.1l2.41-4.58,1,4.81a.19.19,0,0,0,.36.06l2.69-4.88,1.87,4.9a.2.2,0,0,0,.18.12h0a.19.19,0,0,0,.18-.11l2.15-5,1.95,4.7a.18.18,0,0,0,.19.12.19.19,0,0,0,.18-.13l1.84-5.82A.2.2,0,0,0,751.36,462.29Z"/><path class="cls-8" d="M732,461.46a.18.18,0,0,0-.27,0l-3.61,4,.11-5.11a.18.18,0,0,0-.31-.15l-4.21,3.38.62-5.15a.19.19,0,0,0-.09-.19.2.2,0,0,0-.21,0l-4.56,3,1.36-4.73a.19.19,0,0,0-.07-.22.22.22,0,0,0-.22,0l-4.12,2.83,1.65-4.75a.19.19,0,0,0-.27-.24l-4.69,2.31,2.14-4.49a.19.19,0,0,0-.09-.26.21.21,0,0,0-.26.09l-2.39,5a.21.21,0,0,0,0,.23.2.2,0,0,0,.22,0l4.78-2.34-1.69,4.86a.19.19,0,0,0,.07.22.21.21,0,0,0,.23,0l4.15-2.86-1.36,4.72a.18.18,0,0,0,.07.21.2.2,0,0,0,.22,0l4.65-3.06-.62,5.2a.2.2,0,0,0,.1.2.18.18,0,0,0,.21,0l4.26-3.42-.13,5.22a.19.19,0,0,0,.13.18l.07,0a.16.16,0,0,0,.14-.07l4-4.39A.19.19,0,0,0,732,461.46Z"/><path class="cls-8" d="M715,451.63l-5.35,1.53,2.8-4.16a.22.22,0,0,0,0-.22.19.19,0,0,0-.2-.08l-5.31.95,3-4.22a.22.22,0,0,0,0-.21.2.2,0,0,0-.19-.09l-5.44.44,3.47-3.5a.18.18,0,0,0,0-.22.18.18,0,0,0-.19-.11l-5.09.52,3.84-3.39a.19.19,0,0,0,.06-.21.19.19,0,0,0-.18-.13l-5.45-.15,4.09-2.87a.19.19,0,0,0-.22-.32l-4.58,3.21a.17.17,0,0,0-.07.21.19.19,0,0,0,.18.14l5.55.15-3.93,3.47a.17.17,0,0,0,0,.22.18.18,0,0,0,.2.11l5.15-.52-3.46,3.49a.2.2,0,0,0,0,.22.19.19,0,0,0,.19.11l5.55-.45-3,4.26a.2.2,0,0,0,0,.22.2.2,0,0,0,.2.09l5.33-1L709,453.39a.18.18,0,0,0,0,.22.21.21,0,0,0,.16.08h.05l5.87-1.68a.19.19,0,0,0,.14-.24A.21.21,0,0,0,715,451.63Z"/><path class="cls-8" d="M704.78,435.1,699.32,434l4.42-2.4a.19.19,0,0,0,0-.35l-5.15-1.62,4.62-2.35a.19.19,0,0,0,.11-.18.21.21,0,0,0-.12-.17l-5-2.12,4.69-1.5a.22.22,0,0,0,.14-.18.21.21,0,0,0-.13-.19L698.08,421l5-1.23a.19.19,0,0,0,.14-.16.18.18,0,0,0-.09-.2l-4.53-2.61,4.91-.72a.19.19,0,0,0,.17-.22.2.2,0,0,0-.22-.16l-5.48.79a.22.22,0,0,0-.16.16.2.2,0,0,0,.09.21l4.6,2.65-5.09,1.25a.22.22,0,0,0-.15.18.2.2,0,0,0,.12.19l4.81,1.92-4.68,1.5a.19.19,0,0,0-.13.18.17.17,0,0,0,.12.18l5.13,2.17L698,429.49a.19.19,0,0,0-.11.19.2.2,0,0,0,.14.17l5.16,1.61-4.47,2.43a.19.19,0,0,0-.1.2.2.2,0,0,0,.15.17l6,1.22h0a.2.2,0,0,0,.2-.15A.2.2,0,0,0,704.78,435.1Z"/><path class="cls-8" d="M711.53,397.94l-5.21-1.85a.21.21,0,0,0-.22.06.21.21,0,0,0,0,.23l2.83,4.5-5-1.17a.2.2,0,0,0-.19.32l3.27,3.83-4.83-.86a.2.2,0,0,0-.2.09.18.18,0,0,0,0,.22l3.53,4.31-5.24-.07a.17.17,0,0,0-.18.12.19.19,0,0,0,0,.21l3.85,3.87-5.2.43a.18.18,0,0,0-.17.14.18.18,0,0,0,.07.21l4.78,3.48a.28.28,0,0,0,.12,0,.21.21,0,0,0,.16-.08.21.21,0,0,0-.05-.28l-4.36-3.17,5.1-.42a.17.17,0,0,0,.16-.12.2.2,0,0,0,0-.21l-3.81-3.83,5.18.08a.19.19,0,0,0,.18-.11.18.18,0,0,0,0-.21l-3.46-4.23,4.85.87a.2.2,0,0,0,.2-.1.17.17,0,0,0,0-.22l-3.24-3.79,4.9,1.13a.19.19,0,0,0,.2-.07.2.2,0,0,0,0-.22l-2.79-4.43,4.68,1.67a.2.2,0,0,0,.25-.12A.19.19,0,0,0,711.53,397.94Z"/><path class="cls-8" d="M740.39,377.48a.19.19,0,0,0-.26.09l-2.51,5.15-1.9-4.63a.2.2,0,0,0-.37,0l-1.45,5.2-2.61-4.22a.21.21,0,0,0-.2-.09.2.2,0,0,0-.16.16l-1,5.24-2.75-4.11a.2.2,0,0,0-.36.1l-.21,5.27-3.34-3.85a.21.21,0,0,0-.22-.05.19.19,0,0,0-.12.2l.43,5.53L719.53,384a.19.19,0,0,0-.32.18l1.06,5.07-3.83-3.07a.19.19,0,0,0-.31.19l1,5.47-4.56-2.58a.2.2,0,0,0-.22,0,.19.19,0,0,0-.06.21l1.51,5.2-4.5-2.39a.22.22,0,0,0-.22,0,.19.19,0,0,0-.05.22l2.29,5.66a.18.18,0,0,0,.18.12h.07a.2.2,0,0,0,.11-.26l-2.09-5.16,4.43,2.35a.22.22,0,0,0,.22,0,.19.19,0,0,0,.06-.2l-1.51-5.18,4.52,2.54a.2.2,0,0,0,.21,0,.18.18,0,0,0,.07-.19l-1-5.37,3.85,3.08a.2.2,0,0,0,.31-.19l-1-5,3.77,3.47a.22.22,0,0,0,.22,0,.21.21,0,0,0,.11-.19l-.43-5.44,3.28,3.77a.2.2,0,0,0,.35-.12l.2-5.16,2.69,4a.18.18,0,0,0,.2.08.17.17,0,0,0,.15-.15l1-5.22,2.59,4.17a.18.18,0,0,0,.19.09.19.19,0,0,0,.16-.14l1.42-5.08,1.85,4.5a.19.19,0,0,0,.36,0l2.69-5.53A.19.19,0,0,0,740.39,377.48Z"/><path class="cls-8" d="M785.32,405.36a46,46,0,0,0-24.38-24.5,45.93,45.93,0,1,0-.2,84.63,46,46,0,0,0,24.58-60.13ZM742.85,468a44.89,44.89,0,1,1,45-44.78A44.94,44.94,0,0,1,742.85,468Z"/><path class="cls-8" d="M745.84,383a.09.09,0,0,0-.09.09L740,463.37a.08.08,0,0,0,.08.1h0a.09.09,0,0,0,.09-.09l5.75-80.27A.1.1,0,0,0,745.84,383Z"/><path class="cls-8" d="M783.11,426l-80.27-5.75a.1.1,0,0,0-.1.09.09.09,0,0,0,.08.1l80.27,5.75h0a.1.1,0,0,0,0-.19Z"/><path class="cls-8" d="M773.32,396.83l-60.83,52.69a.09.09,0,0,0,0,.13.11.11,0,0,0,.07,0l.06,0L773.44,397a.1.1,0,0,0,0-.13A.09.09,0,0,0,773.32,396.83Z"/><path class="cls-8" d="M716.69,392.77a.09.09,0,0,0-.13,0,.09.09,0,0,0,0,.13l52.69,60.82a.08.08,0,0,0,.13,0,.09.09,0,0,0,0-.13Z"/><path class="cls-8" d="M779.21,440.71l-72.42-35.1a.1.1,0,0,0-.12,0,.11.11,0,0,0,0,.13l72.42,35.09h0a.11.11,0,0,0,.09-.05A.09.09,0,0,0,779.21,440.71Z"/><path class="cls-8" d="M760.55,387a.09.09,0,0,0-.12,0l-35.1,72.42a.09.09,0,0,0,0,.12h0a.1.1,0,0,0,.08-.05l35.09-72.42A.08.08,0,0,0,760.55,387Z"/><path class="cls-8" d="M730.43,385a.09.09,0,0,0-.11-.06.08.08,0,0,0-.06.11l25.24,76.42a.08.08,0,0,0,.08.06h0a.09.09,0,0,0,.06-.12Z"/><path class="cls-8" d="M781.14,410.53l-76.41,25.25a.08.08,0,0,0-.06.11.08.08,0,0,0,.08.06h0l76.41-25.24a.09.09,0,0,0-.06-.18Z"/><path class="cls-8" d="M751.44,383.81a.09.09,0,0,0-.11.07l-16.91,78.68a.09.09,0,0,0,.07.11h0a.09.09,0,0,0,.09-.07l16.91-78.68A.09.09,0,0,0,751.44,383.81Z"/><path class="cls-8" d="M782.32,431.61,703.64,414.7a.09.09,0,0,0-.11.07.1.1,0,0,0,.07.11l78.68,16.91h0a.1.1,0,0,0,.09-.07A.09.09,0,0,0,782.32,431.61Z"/><path class="cls-8" d="M776.71,401.33,709.12,445a.1.1,0,0,0,0,.13.09.09,0,0,0,.08,0h.05l67.59-43.68a.09.09,0,1,0-.1-.15Z"/><path class="cls-8" d="M721.2,389.39a.08.08,0,0,0-.12,0,.08.08,0,0,0,0,.12l43.68,67.6a.1.1,0,0,0,.07,0l.05,0a.08.08,0,0,0,0-.12Z"/><path class="cls-8" d="M776.42,445.6l-66.81-44.87a.09.09,0,0,0-.13,0,.11.11,0,0,0,0,.13l66.8,44.87.06,0a.08.08,0,0,0,.07,0A.09.09,0,0,0,776.42,445.6Z"/><path class="cls-8" d="M765.45,389.76a.09.09,0,0,0-.13,0l-44.87,66.8a.1.1,0,0,0,0,.13l0,0a.12.12,0,0,0,.08,0l44.86-66.81A.09.09,0,0,0,765.45,389.76Z"/><path class="cls-8" d="M735.9,383.63a.09.09,0,0,0-.11-.07.08.08,0,0,0-.07.1L750,462.86a.1.1,0,0,0,.09.07h0a.09.09,0,0,0,.07-.11Z"/><path class="cls-8" d="M782.54,416l-79.19,14.32a.09.09,0,0,0,0,.18h0l79.19-14.32a.08.08,0,0,0,.07-.1A.1.1,0,0,0,782.54,416Z"/><path class="cls-8" d="M756.45,385.23a.1.1,0,0,0-.12.06l-26.91,75.84a.09.09,0,0,0,.06.12h0a.08.08,0,0,0,.08-.06l26.92-75.84A.09.09,0,0,0,756.45,385.23Z"/><path class="cls-8" d="M780.92,436.61,705.07,409.7a.08.08,0,0,0-.11.05.09.09,0,0,0,0,.12l75.84,26.92h0a.09.09,0,0,0,.09-.06A.1.1,0,0,0,780.92,436.61Z"/><path class="cls-8" d="M779.38,405.9a.1.1,0,0,0-.12,0l-72.67,34.6a.09.09,0,0,0,0,.12.1.1,0,0,0,.08.05h0L779.33,406A.1.1,0,0,0,779.38,405.9Z"/><path class="cls-8" d="M760.35,459.53l-34.6-72.66a.1.1,0,0,0-.12,0,.09.09,0,0,0,0,.12l34.6,72.66a.09.09,0,0,0,.08.05h0A.09.09,0,0,0,760.35,459.53Z"/><path class="cls-8" d="M773.25,449.73l-60.46-53.11s-.09,0-.13,0a.08.08,0,0,0,0,.12l60.46,53.12.06,0a.08.08,0,0,0,.07,0A.09.09,0,0,0,773.25,449.73Z"/><path class="cls-8" d="M769.58,392.94a.09.09,0,0,0-.13,0l-53.11,60.46a.09.09,0,0,0,0,.13.07.07,0,0,0,.06,0,.11.11,0,0,0,.07,0l53.11-60.46A.09.09,0,0,0,769.58,392.94Z"/><path class="cls-8" d="M741.06,383.05A.09.09,0,0,0,741,383a.1.1,0,0,0-.09.1l4,80.38a.11.11,0,0,0,.1.08h0a.09.09,0,0,0,.09-.09Z"/><path class="cls-8" d="M783.15,421.16l-80.38,4a.1.1,0,0,0,0,.19h0l80.38-4a.08.08,0,0,0,.08-.09C783.24,421.19,783.2,421.15,783.15,421.16Z"/><path class="cls-8" d="M743.65,423.07h0a.27.27,0,0,0,0-.12h0l-.05-.11h0l-.07-.09h0l-.08-.06v0l-.08,0s0,0,0,0l-.07,0-.05,0h-.32l-.07,0h0l-.08.05h0l-.09.07h0l-.08.09h0l-.06.11h0l0,.12h0l-10.09,57.33a.64.64,0,0,0,.52.75h.11a.66.66,0,0,0,.65-.53L743,427l9.19,53.72a.65.65,0,0,0,.64.54h.11a.64.64,0,0,0,.53-.75Z"/><path class="cls-8" d="M743,423.18Zm1.14,6.7-1.14-6.7-1.23,6.64Z"/><circle class="cls-8" cx="742.97" cy="423.14" r="2.73"/><path class="cls-8" d="M894.69,463.17a4.11,4.11,0,0,1,.34,2.24,17.53,17.53,0,0,0,0,2,7.16,7.16,0,0,0,.19,1.11,2.23,2.23,0,0,0,.18-.51,21.25,21.25,0,0,0,.93-3.32,5.94,5.94,0,0,0-.5-3.81c-.81-3.77,1.74-6,3.8-8.67,0,1.34-.06,2.68-.07,4a33.74,33.74,0,0,1-.76,7,11,11,0,0,0-.16,4,6.4,6.4,0,0,1,0,2.31c-.56,2.54-.78,5.12-1.18,7.68a.52.52,0,0,0,.22.56c.51.44.6.68.24,1.37a2.26,2.26,0,0,0-.17.43.35.35,0,0,0,.19.43,1.15,1.15,0,0,0,.78.18c.38-.06.76-.16,1.15-.24.2,0,.23-.14.18-.31a.63.63,0,0,0-.12-.23c-.24-.26-.49-.5-.74-.75a.74.74,0,0,1-.27-.64c0-.46,0-.92,0-1.39.06-1.51.1-3,.19-4.54a53.93,53.93,0,0,1,.61-5.54,3.65,3.65,0,0,1,.24-1.05,6.17,6.17,0,0,0,.48-1.49,13.85,13.85,0,0,1,.8-2.9,17.15,17.15,0,0,1,2.41-4,6.37,6.37,0,0,0,.45-.61,1.64,1.64,0,0,0,.26.33.54.54,0,0,0,0,.22,16.33,16.33,0,0,1,.67,3.6,9.64,9.64,0,0,1-.44,3.62.59.59,0,0,0,0,.32,38.43,38.43,0,0,0,1.44,4.95,52.75,52.75,0,0,1,2.59,8.35.25.25,0,0,0,.24.21,5,5,0,0,1,.53.11.56.56,0,0,1,.36.9c-.18.25-.15.31.12.47a.77.77,0,0,0,.19.08,4.68,4.68,0,0,0,1.71-.07c.11,0,.15-.09.1-.21-.34-.79-.6-1-1.45-.92l0,0a1.88,1.88,0,0,0-.15-1.5c-.21-.44-.4-.89-.59-1.34a29.85,29.85,0,0,1-2.44-7.89,13,13,0,0,1-.14-3.3,3,3,0,0,1,.6-1.65,1.45,1.45,0,0,0,.25-.6,17.94,17.94,0,0,1,1-3.36l.55-1.27a1.11,1.11,0,0,0,.45-.3l.05-.07h.44a8.84,8.84,0,0,0,2.67-.16h.06a5.64,5.64,0,0,0,2.56-1,8.43,8.43,0,0,0,1.31-.93,8.52,8.52,0,0,0-.43,1.26,9.88,9.88,0,0,0-.06,2.77c.08.8.14,1.59.19,2.39a11.1,11.1,0,0,1-.33,2.87,7.8,7.8,0,0,0-.12,2.41c0,.42.12.84.17,1.26a21.64,21.64,0,0,1,0,3.6c-.08,1.38-.27,2.75-.25,4.13a14.59,14.59,0,0,0,.57,4.26.6.6,0,0,1,0,.37c-.1.28,0,.38.27.37l.53,0a2.32,2.32,0,0,1-.37.3.24.24,0,0,0-.09.21c0,.07.09.13.16.16a1.72,1.72,0,0,0,.39.1,5.33,5.33,0,0,0,1.69.06c0-.86,0-.85-.63-1.41a1.17,1.17,0,0,1-.31-.48c-.11-.36-.16-.73-.26-1.1a10.65,10.65,0,0,1-.44-2.56c0-1,0-1.94.06-2.9.12-1.53.28-3.05.49-4.56s.49-3,.75-4.46c.31-1.69.6-3.38.94-5.06.3-1.46.66-2.89,1-4.34l.06-.23s.06,0,.06.08c.1,1.57.23,3.15.28,4.72,0,.79-.11,1.58-.13,2.38-.06,1.92-.1,3.84-.14,5.77,0,.62,0,1.24,0,1.86.13,1.57.26,3.14.42,4.71.15,1.36.34,2.71.5,4.07a.31.31,0,0,0,.3.32.87.87,0,0,1,.67.65,2.54,2.54,0,0,1,.1,1.31c.27.07.53.14.79.19a8.24,8.24,0,0,0,1.1.22c.26,0,.39-.09.39-.35a1.17,1.17,0,0,0-.13-.63,2.44,2.44,0,0,0-1.41-1l-.41-.08c0-.13,0-.25,0-.37-.11-1-.24-1.91-.32-2.87-.12-1.25-.21-2.51-.29-3.76-.06-.82-.11-1.65-.11-2.47s0-1.46.07-2.19c.07-2.05.21-4.09.48-6.13a18.78,18.78,0,0,1,1-4.17,9.54,9.54,0,0,0,.45-1.37,32.91,32.91,0,0,0,.56-4.43,13.16,13.16,0,0,1,.18-1.66,11.15,11.15,0,0,1,.54-1.6,1.88,1.88,0,0,0,.09-1,4.93,4.93,0,0,0-.87-2c-.18-.28-.38-.56-.55-.84a.32.32,0,0,1,0-.25c.24-.53.46-1.07.74-1.58,1-1.87,2-3.75,3.07-5.59a30.6,30.6,0,0,0,3.14-7.66c.45-1.73.78-3.49,1.09-5.25s.77-3.57,1.17-5.36a15.21,15.21,0,0,1,.43-1.46c0-.14.21-.32.33-.32a5,5,0,0,1,1.28.05,6.21,6.21,0,0,0,2.61,0,4,4,0,0,1,1-.08c.73,0,1.46.1,2.18.18a1.82,1.82,0,0,0,1.37-.44,3.57,3.57,0,0,0-.42-.5,13.37,13.37,0,0,0-1.24-.89c-.75-.44-1.53-.84-2.29-1.26a3.05,3.05,0,0,1-1.43-1.43,1.15,1.15,0,0,0-1.22-.69,3.76,3.76,0,0,1-1.25,0,1.22,1.22,0,0,1-.6-.38,2,2,0,0,1-.35-1.12c-.07-.56-.17-.64-.72-.65h-.07a.72.72,0,0,0-.72.25.48.48,0,0,0,0,.71,3.88,3.88,0,0,0,.68.42,2.35,2.35,0,0,1,1,.85.74.74,0,0,1-1,.48,2.91,2.91,0,0,1-.67-.21.44.44,0,0,0-.6.12c-.52.6-1.07,1.19-1.57,1.82a10.85,10.85,0,0,0-1.77,3.3c-.37,1.1-.66,2.22-1,3.34a25.15,25.15,0,0,1-2.65,6.41,12.29,12.29,0,0,1-.89,1.25,39.18,39.18,0,0,1-4.88,4.76c-1.51,1.29-3.11,2.46-4.67,3.68a6.62,6.62,0,0,0-.63.45c-.24.23-.42.52-.65.76-.54.57-1.07,1.13-1.62,1.68a3.23,3.23,0,0,1-.66.49,20,20,0,0,1-4.47,1.7,11.77,11.77,0,0,0-3.84,1.72,4.06,4.06,0,0,0-.86.72,8.37,8.37,0,0,0-1.2,2.2,20.68,20.68,0,0,0-.67,2.42l-.09.17c-.91,2.46-3,4.14-4.55,6.23a7.24,7.24,0,0,0-1.34,4.39,2.77,2.77,0,0,0-.13,2A11.06,11.06,0,0,0,894.69,463.17Z"/></svg>